<?xml version="1.0" encoding="utf-8"?>
<!-- Generator: Adobe Illustrator 27.5.0, SVG Export Plug-In . SVG Version: 6.00 Build 0)  -->
<svg version="1.1" id="Layer_1" xmlns="http://www.w3.org/2000/svg" xmlns:xlink="http://www.w3.org/1999/xlink" x="0px" y="0px"
	 viewBox="0 0 900 900" style="enable-background:new 0 0 900 900;" xml:space="preserve">
<g>
	<g id="XMLID_9091_">
		
			<rect id="XMLID_9500_" x="227.059" y="193.088" style="fill:#FC7070;stroke:#640917;stroke-width:2.3202;stroke-linecap:round;stroke-miterlimit:10;" width="278.838" height="588.043"/>
		
			<rect id="XMLID_9499_" x="278.267" y="193.088" style="fill:#E25959;stroke:#640917;stroke-width:2.3202;stroke-linecap:round;stroke-miterlimit:10;" width="278.838" height="588.043"/>
		
			<rect id="XMLID_9498_" x="561.916" y="193.088" transform="matrix(-1 -1.224647e-16 1.224647e-16 -1 1281.7394 974.2186)" style="fill:#E25959;stroke:#640917;stroke-width:2.3202;stroke-linecap:round;stroke-miterlimit:10;" width="157.908" height="588.043"/>
		
			<line id="XMLID_9497_" style="fill:#E25959;stroke:#640917;stroke-width:2.3202;stroke-linecap:round;stroke-miterlimit:10;" x1="708.208" y1="781.131" x2="708.208" y2="193.088"/>
		<path id="XMLID_9496_" style="fill:#C13333;stroke:#640917;stroke-width:2.3202;stroke-linecap:round;stroke-miterlimit:10;" d="
			M559.647,289.677L559.647,289.677c3.208,0,5.808-2.6,5.808-5.808v-37.753c0-3.208-2.6-5.808-5.808-5.808l0,0
			c-3.208,0-5.808,2.6-5.808,5.808v37.753C553.839,287.076,556.439,289.677,559.647,289.677z"/>
		<path id="XMLID_9495_" style="fill:#C13333;stroke:#640917;stroke-width:2.3202;stroke-linecap:round;stroke-miterlimit:10;" d="
			M559.647,717.663L559.647,717.663c3.208,0,5.808-2.6,5.808-5.808v-37.753c0-3.208-2.6-5.808-5.808-5.808l0,0
			c-3.208,0-5.808,2.6-5.808,5.808v37.753C553.839,715.063,556.439,717.663,559.647,717.663z"/>
		
			<rect id="XMLID_9494_" x="561.916" y="193.088" transform="matrix(-1 -1.224647e-16 1.224647e-16 -1 1210.2269 974.2186)" style="opacity:0.15;fill:#640917;" width="86.396" height="588.043"/>
		
			<rect id="XMLID_9493_" x="708.208" y="193.088" transform="matrix(-1 -1.224647e-16 1.224647e-16 -1 1428.0316 974.2186)" style="fill:#FC7070;stroke:#640917;stroke-width:2.3202;stroke-linecap:round;stroke-miterlimit:10;" width="11.616" height="588.043"/>
		<path id="XMLID_9492_" style="fill:#640917;stroke:#640917;stroke-width:2.3202;stroke-linecap:round;stroke-miterlimit:10;" d="
			M343.935,789.72H318.44c-3.849,0-6.969-3.12-6.969-6.969v-1.62h39.433v1.62C350.904,786.6,347.784,789.72,343.935,789.72z"/>
		<path id="XMLID_9491_" style="fill:#640917;stroke:#640917;stroke-width:2.3202;stroke-linecap:round;stroke-miterlimit:10;" d="
			M272.071,789.72h-25.495c-3.849,0-6.969-3.12-6.969-6.969v-1.62h39.433v1.62C279.04,786.6,275.92,789.72,272.071,789.72z"/>
		<path id="XMLID_9490_" style="fill:#640917;stroke:#640917;stroke-width:2.3202;stroke-linecap:round;stroke-miterlimit:10;" d="
			M531.006,789.72h-25.495c-3.849,0-6.969-3.12-6.969-6.969v-1.62h39.433v1.62C537.975,786.6,534.855,789.72,531.006,789.72z"/>
		<path id="XMLID_9489_" style="fill:#640917;stroke:#640917;stroke-width:2.3202;stroke-linecap:round;stroke-miterlimit:10;" d="
			M460.764,789.72h-25.495c-3.849,0-6.969-3.12-6.969-6.969v-1.62h39.433v1.62C467.733,786.6,464.613,789.72,460.764,789.72z"/>
		
			<line id="XMLID_9487_" style="fill:#640917;stroke:#640917;stroke-width:2.3202;stroke-linecap:round;stroke-miterlimit:10;" x1="194.307" y1="789.72" x2="727.22" y2="789.72"/>
		<path id="XMLID_7448_" style="fill:#640917;stroke:#640917;stroke-width:2.3202;stroke-linecap:round;stroke-miterlimit:10;" d="
			M725.042,789.72"/>
		
			<rect id="XMLID_9485_" x="289.521" y="201.829" style="fill:#9B1C1C;stroke:#640917;stroke-width:2.3202;stroke-linecap:round;stroke-miterlimit:10;" width="255.558" height="527.088"/>
		
			<rect id="XMLID_9484_" x="493.87" y="201.829" style="fill:#AF2727;stroke:#640917;stroke-width:2.3202;stroke-linecap:round;stroke-miterlimit:10;" width="51.208" height="526.362"/>
		<g id="XMLID_9477_">
			
				<line id="XMLID_9483_" style="fill:none;stroke:#640917;stroke-width:4.6405;stroke-miterlimit:10;" x1="538.42" y1="251.221" x2="538.42" y2="728.806"/>
			
				<line id="XMLID_9482_" style="fill:none;stroke:#640917;stroke-width:4.6405;stroke-miterlimit:10;" x1="529.059" y1="251.221" x2="529.059" y2="728.806"/>
			
				<line id="XMLID_9481_" style="fill:none;stroke:#640917;stroke-width:4.6405;stroke-miterlimit:10;" x1="519.698" y1="251.221" x2="519.698" y2="728.806"/>
			
				<line id="XMLID_9480_" style="fill:none;stroke:#640917;stroke-width:4.6405;stroke-miterlimit:10;" x1="510.337" y1="251.221" x2="510.337" y2="728.806"/>
			
				<line id="XMLID_9478_" style="fill:none;stroke:#640917;stroke-width:4.6405;stroke-miterlimit:10;" x1="501.129" y1="251.221" x2="501.129" y2="728.806"/>
		</g>
		<g id="XMLID_9464_">
			
				<rect id="XMLID_9476_" x="289.521" y="364.728" style="fill:#E25959;stroke:#640917;stroke-width:2.3202;stroke-linecap:round;stroke-miterlimit:10;" width="255.558" height="8.168"/>
			
				<rect id="XMLID_9475_" x="289.521" y="310.64" style="fill:#CDE0DF;stroke:#640917;stroke-width:2.3202;stroke-linecap:round;stroke-miterlimit:10;" width="255.558" height="54.088"/>
			<g id="XMLID_9470_">
				<circle id="XMLID_9474_" style="fill:#A4C1BF;" cx="298.959" cy="321.893" r="4.356"/>
				<circle id="XMLID_9473_" style="fill:#A4C1BF;" cx="298.959" cy="349.482" r="4.356"/>
				
					<rect id="XMLID_9472_" x="298.142" y="315.223" transform="matrix(0.7071 -0.7071 0.7071 0.7071 -140.05 305.6762)" style="fill:#CDE0DF;" width="1.634" height="13.341"/>
				
					<rect id="XMLID_9471_" x="298.142" y="342.812" transform="matrix(0.7071 -0.7071 0.7071 0.7071 -159.5581 313.7567)" style="fill:#CDE0DF;" width="1.634" height="13.341"/>
			</g>
			<g id="XMLID_9465_">
				<circle id="XMLID_9469_" style="fill:#A4C1BF;" cx="532.651" cy="321.893" r="4.356"/>
				<circle id="XMLID_9468_" style="fill:#A4C1BF;" cx="532.651" cy="349.482" r="4.356"/>
				
					<rect id="XMLID_9467_" x="531.834" y="315.223" transform="matrix(-0.7071 -0.7071 0.7071 -0.7071 681.6783 926.1473)" style="fill:#CDE0DF;" width="1.634" height="13.341"/>
				
					<rect id="XMLID_9466_" x="531.834" y="342.812" transform="matrix(-0.7071 -0.7071 0.7071 -0.7071 662.1702 973.244)" style="fill:#CDE0DF;" width="1.634" height="13.341"/>
			</g>
		</g>
		<polygon id="XMLID_8772_" style="opacity:0.52;fill:#640917;" points="545.783,386.731 493.903,407.521 290.225,407.521 
			290.225,373.401 545.783,373.401 		"/>
		<polygon id="XMLID_9341_" style="opacity:0.52;fill:#640917;" points="545.783,215.492 493.903,236.281 290.225,236.281 
			290.225,202.161 545.783,202.161 		"/>
		<polygon id="XMLID_8851_" style="opacity:0.52;fill:#640917;" points="545.783,288.814 493.903,310.207 290.225,310.207 
			290.225,275.097 545.783,275.097 		"/>
		<g>
			
				<rect id="XMLID_10215_" x="288.961" y="267.289" style="fill:#E25959;stroke:#640917;stroke-width:2.3202;stroke-linecap:round;stroke-miterlimit:10;" width="255.558" height="8.168"/>
			
				<rect id="XMLID_10214_" x="289.666" y="213.554" style="fill:#B6D3D1;stroke:#640917;stroke-width:2.3202;stroke-linecap:round;stroke-miterlimit:10;" width="255.558" height="54.088"/>
			<rect x="322.942" y="267.02" style="opacity:0.41;fill:#640917;" width="8.822" height="8.308"/>
			<rect x="355.71" y="267.02" style="opacity:0.41;fill:#640917;" width="8.822" height="8.308"/>
			<rect x="387.069" y="267.02" style="opacity:0.41;fill:#640917;" width="8.822" height="8.308"/>
			<rect x="399.224" y="267.02" style="opacity:0.41;fill:#640917;" width="8.822" height="8.308"/>
			<rect x="422.479" y="267.02" style="opacity:0.41;fill:#640917;" width="8.822" height="8.308"/>
			<rect x="457.89" y="267.02" style="opacity:0.41;fill:#640917;" width="8.822" height="8.308"/>
			<rect x="494.358" y="267.02" style="opacity:0.41;fill:#640917;" width="8.822" height="8.308"/>
			<rect x="525.54" y="267.02" style="opacity:0.41;fill:#640917;" width="8.822" height="8.308"/>
			<g id="XMLID_10209_">
				<circle id="XMLID_10213_" style="fill:#86ADAD;" cx="298.4" cy="224.454" r="4.356"/>
				<circle id="XMLID_10212_" style="fill:#86ADAD;" cx="298.4" cy="252.043" r="4.356"/>
				
					<rect id="XMLID_10211_" x="297.583" y="217.784" transform="matrix(0.7071 -0.7071 0.7071 0.7071 -71.3163 276.7256)" style="fill:#B6D3D1;" width="1.633" height="13.341"/>
				
					<rect id="XMLID_10210_" x="297.583" y="245.373" transform="matrix(0.7071 -0.7071 0.7071 0.7071 -90.8236 284.8053)" style="fill:#B6D3D1;" width="1.633" height="13.341"/>
			</g>
			<g id="XMLID_10204_">
				<circle id="XMLID_10208_" style="fill:#86ADAD;" cx="532.091" cy="224.454" r="4.356"/>
				<circle id="XMLID_10207_" style="fill:#A4C1BF;" cx="532.091" cy="252.043" r="4.356"/>
				
					<rect id="XMLID_10206_" x="531.275" y="217.784" transform="matrix(-0.7071 -0.7071 0.7071 -0.7071 749.6466 759.4038)" style="fill:#B6D3D1;" width="1.633" height="13.341"/>
				
					<rect id="XMLID_10205_" x="531.275" y="245.373" transform="matrix(-0.7071 -0.7071 0.7071 -0.7071 730.1393 806.5013)" style="fill:#B6D3D1;" width="1.633" height="13.341"/>
			</g>
			<rect id="XMLID_10203_" x="308.585" y="221.55" style="fill:#85A8AA;" width="10.164" height="8.712"/>
			<path id="XMLID_10202_" style="fill:#FFFFFF;" d="M320.337,230.263h-8.507v-8.712h8.507c2.406,0,4.356,1.95,4.356,4.356l0,0
				C324.694,228.312,322.743,230.263,320.337,230.263z"/>
			<path id="XMLID_10201_" style="fill:none;stroke:#FFFFFF;stroke-width:4.6405;stroke-miterlimit:10;" d="M318.749,225.906h8.484
				c2.607,0,4.72,2.113,4.72,4.72v44.241c0,6.491-5.262,11.752-11.752,11.752h-30.183"/>
			<rect id="XMLID_10200_" x="308.585" y="247.687" style="fill:#85A8AA;" width="10.164" height="8.712"/>
			<path id="XMLID_10199_" style="fill:#FFFFFF;" d="M320.337,256.399h-8.507v-8.712h8.507c2.406,0,4.356,1.95,4.356,4.356l0,0
				C324.694,254.449,322.743,256.399,320.337,256.399z"/>
			<path id="XMLID_10198_" style="fill:none;stroke:#FFFFFF;stroke-width:4.6405;stroke-miterlimit:10;" d="M318.749,252.043h8.484
				c2.607,0,4.72,2.113,4.72,4.72v19.193c0,5.889-4.774,10.663-10.663,10.663h-31.272"/>
			<g id="XMLID_10191_">
				<rect id="XMLID_10197_" x="340.678" y="221.55" style="fill:#85A8AA;" width="10.164" height="8.712"/>
				<path id="XMLID_10196_" style="fill:#FFFFFF;" d="M352.43,230.263h-8.507v-8.712h8.507c2.406,0,4.356,1.95,4.356,4.356l0,0
					C356.786,228.312,354.836,230.263,352.43,230.263z"/>
				<path id="XMLID_10195_" style="fill:none;stroke:#FFFFFF;stroke-width:4.6405;stroke-miterlimit:10;" d="M350.842,225.906h8.484
					c2.607,0,4.72,2.113,4.72,4.72v35.03"/>
				<rect id="XMLID_10194_" x="340.678" y="247.687" style="fill:#85A8AA;" width="10.164" height="8.712"/>
				<path id="XMLID_10193_" style="fill:#FFFFFF;" d="M352.43,256.399h-8.507v-8.712h8.507c2.406,0,4.356,1.95,4.356,4.356l0,0
					C356.786,254.449,354.836,256.399,352.43,256.399z"/>
				<path id="XMLID_10192_" style="fill:none;stroke:#FFFFFF;stroke-width:4.6405;stroke-miterlimit:10;" d="M350.842,252.043h8.484
					c2.607,0,4.72,2.113,4.72,4.72v24.247c0,4.752-3.853,9.662-8.605,9.662h-65.423"/>
			</g>
			<g id="XMLID_10184_">
				<rect id="XMLID_10190_" x="372.804" y="221.55" style="fill:#85A8AA;" width="10.164" height="8.712"/>
				<path id="XMLID_10189_" style="fill:#FFFFFF;" d="M384.557,230.263h-8.507v-8.712h8.507c2.406,0,4.356,1.95,4.356,4.356l0,0
					C388.913,228.312,386.962,230.263,384.557,230.263z"/>
				<path id="XMLID_10188_" style="fill:none;stroke:#FFFFFF;stroke-width:4.6405;stroke-miterlimit:10;" d="M382.968,225.906h8.484
					c2.607,0,4.72,2.113,4.72,4.72v35.03"/>
				<rect id="XMLID_10187_" x="372.804" y="247.687" style="fill:#85A8AA;" width="10.164" height="8.712"/>
				<path id="XMLID_10186_" style="fill:#FFFFFF;" d="M384.557,256.399h-8.507v-8.712h8.507c2.406,0,4.356,1.95,4.356,4.356l0,0
					C388.913,254.449,386.962,256.399,384.557,256.399z"/>
				<path id="XMLID_10185_" style="fill:none;stroke:#FFFFFF;stroke-width:4.6405;stroke-miterlimit:10;" d="M382.968,252.043h8.484
					c2.607,0,4.72,2.113,4.72,4.72v27.241c0,4.602-3.731,8.333-8.332,8.333h-97.822"/>
			</g>
			<g id="XMLID_10177_">
				<rect id="XMLID_10183_" x="408.123" y="221.55" style="fill:#A4C1BF;" width="10.164" height="8.712"/>
				<path id="XMLID_10182_" style="fill:#FFFFFF;" d="M419.876,230.263h-8.507v-8.712h8.507c2.406,0,4.356,1.95,4.356,4.356l0,0
					C424.232,228.312,422.282,230.263,419.876,230.263z"/>
				<path id="XMLID_10181_" style="fill:none;stroke:#FFFFFF;stroke-width:4.6405;stroke-miterlimit:10;" d="M418.288,225.906h8.484
					c2.607,0,4.72,2.113,4.72,4.72v35.03"/>
				<rect id="XMLID_10180_" x="408.123" y="247.687" style="fill:#A4C1BF;" width="10.164" height="8.712"/>
				<path id="XMLID_10179_" style="fill:#FFFFFF;" d="M419.876,256.399h-8.507v-8.712h8.507c2.406,0,4.356,1.95,4.356,4.356l0,0
					C424.232,254.449,422.282,256.399,419.876,256.399z"/>
				<path id="XMLID_10178_" style="fill:none;stroke:#FFFFFF;stroke-width:4.6405;stroke-miterlimit:10;" d="M418.288,252.043h8.484
					c2.607,0,4.72,2.113,4.72,4.72v30.409c0,5.258-4.263,9.521-9.521,9.521H290.018"/>
			</g>
			<g id="XMLID_10170_">
				<rect id="XMLID_10176_" x="442.609" y="221.55" style="fill:#85A8AA;" width="10.164" height="8.712"/>
				<path id="XMLID_10175_" style="fill:#FFFFFF;" d="M454.362,230.263h-8.507v-8.712h8.507c2.406,0,4.356,1.95,4.356,4.356l0,0
					C458.718,228.312,456.767,230.263,454.362,230.263z"/>
				<path id="XMLID_10174_" style="fill:none;stroke:#FFFFFF;stroke-width:4.6405;stroke-miterlimit:10;" d="M452.773,225.906h8.484
					c2.607,0,4.72,2.113,4.72,4.72v35.03"/>
				<rect id="XMLID_10173_" x="442.609" y="247.687" style="fill:#85A8AA;" width="10.164" height="8.712"/>
				<path id="XMLID_10172_" style="fill:#FFFFFF;" d="M454.362,256.399h-8.507v-8.712h8.507c2.406,0,4.356,1.95,4.356,4.356l0,0
					C458.718,254.449,456.767,256.399,454.362,256.399z"/>
				<path id="XMLID_10171_" style="fill:none;stroke:#FFFFFF;stroke-width:4.6405;stroke-miterlimit:10;" d="M452.773,252.043h8.484
					c2.607,0,4.72,2.113,4.72,4.72v30.409c0,5.258-4.263,9.521-9.521,9.521h-133.01"/>
			</g>
			<g id="XMLID_10163_">
				<rect id="XMLID_10169_" x="479.389" y="221.55" style="fill:#85A8AA;" width="10.164" height="8.712"/>
				<path id="XMLID_10168_" style="fill:#FFFFFF;" d="M491.141,230.263h-8.507v-8.712h8.507c2.406,0,4.356,1.95,4.356,4.356l0,0
					C495.497,228.312,493.547,230.263,491.141,230.263z"/>
				<path id="XMLID_10167_" style="fill:none;stroke:#FFFFFF;stroke-width:4.6405;stroke-miterlimit:10;" d="M489.553,225.906h8.484
					c2.607,0,4.72,2.113,4.72,4.72v35.03"/>
				<rect id="XMLID_10166_" x="479.389" y="247.687" style="fill:#85A8AA;" width="10.164" height="8.712"/>
				<path id="XMLID_10165_" style="fill:#FFFFFF;" d="M491.141,256.399h-8.507v-8.712h8.507c2.406,0,4.356,1.95,4.356,4.356l0,0
					C495.497,254.449,493.547,256.399,491.141,256.399z"/>
				<path id="XMLID_10164_" style="fill:none;stroke:#FFFFFF;stroke-width:4.6405;stroke-miterlimit:10;" d="M489.553,252.043h8.484
					c2.607,0,4.72,2.113,4.72,4.72v30.409c0,5.258-4.262,9.521-9.521,9.521h-133.01"/>
			</g>
			<g id="XMLID_10156_">
				<rect id="XMLID_10162_" x="510.962" y="221.55" style="fill:#85A8AA;" width="10.164" height="8.712"/>
				<path id="XMLID_10161_" style="fill:#FFFFFF;" d="M522.714,230.263h-7.449v-8.712h7.449c2.406,0,4.356,1.95,4.356,4.356l0,0
					C527.07,228.312,525.12,230.263,522.714,230.263z"/>
				<path id="XMLID_10160_" style="fill:none;stroke:#FFFFFF;stroke-width:4.6405;stroke-miterlimit:10;" d="M521.126,225.906h8.484
					c2.607,0,4.72,2.113,4.72,4.72v35.03"/>
				<rect id="XMLID_10159_" x="510.962" y="247.687" style="fill:#85A8AA;" width="10.164" height="8.712"/>
				<path id="XMLID_10158_" style="fill:#FFFFFF;" d="M522.714,256.399h-7.449v-8.712h7.449c2.406,0,4.356,1.95,4.356,4.356l0,0
					C527.07,254.449,525.12,256.399,522.714,256.399z"/>
				<path id="XMLID_10157_" style="fill:none;stroke:#FFFFFF;stroke-width:4.6405;stroke-miterlimit:10;" d="M521.126,252.043h8.484
					c2.607,0,4.72,2.113,4.72,4.72v30.409c0,5.258-4.263,9.521-9.521,9.521H391.8"/>
			</g>
			<g id="XMLID_10135_">
				<g id="XMLID_10154_">
					<path id="XMLID_10155_" style="fill:#E25959;" d="M426.336,218.283c-0.295,0-0.567-0.12-0.773-0.327
						c-0.197-0.196-0.316-0.468-0.316-0.762c0-0.294,0.119-0.566,0.316-0.773c0.403-0.403,1.133-0.403,1.546,0
						c0.196,0.207,0.316,0.49,0.316,0.773c0,0.294-0.12,0.566-0.327,0.773C426.902,218.163,426.619,218.283,426.336,218.283z"/>
				</g>
				<g id="XMLID_10143_">
					<path id="XMLID_10144_" style="fill:#E25959;" d="M511.987,217.194c0-0.599,0.49-1.089,1.089-1.089l0,0
						c0.6,0,1.089,0.49,1.089,1.089l0,0c0,0.599-0.489,1.089-1.089,1.089l0,0C512.477,218.283,511.987,217.793,511.987,217.194z
						 M502.349,217.194c0-0.599,0.49-1.089,1.089-1.089l0,0c0.599,0,1.089,0.49,1.089,1.089l0,0c0,0.599-0.49,1.089-1.089,1.089l0,0
						C502.84,218.283,502.349,217.793,502.349,217.194z M492.712,217.194c0-0.599,0.489-1.089,1.089-1.089l0,0
						c0.599,0,1.089,0.49,1.089,1.089l0,0c0,0.599-0.49,1.089-1.089,1.089l0,0C493.201,218.283,492.712,217.793,492.712,217.194z
						 M483.073,217.194c0-0.599,0.49-1.089,1.089-1.089l0,0c0.599,0,1.089,0.49,1.089,1.089l0,0c0,0.599-0.49,1.089-1.089,1.089l0,0
						C483.564,218.283,483.073,217.793,483.073,217.194z M473.436,217.194c0-0.599,0.49-1.089,1.089-1.089l0,0
						c0.599,0,1.089,0.49,1.089,1.089l0,0c0,0.599-0.49,1.089-1.089,1.089l0,0C473.926,218.283,473.436,217.793,473.436,217.194z
						 M463.798,217.194c0-0.599,0.49-1.089,1.089-1.089l0,0c0.6,0,1.089,0.49,1.089,1.089l0,0c0,0.599-0.489,1.089-1.089,1.089l0,0
						C464.288,218.283,463.798,217.793,463.798,217.194z M454.16,217.194c0-0.599,0.49-1.089,1.089-1.089l0,0
						c0.599,0,1.089,0.49,1.089,1.089l0,0c0,0.599-0.49,1.089-1.089,1.089l0,0C454.651,218.283,454.16,217.793,454.16,217.194z
						 M444.523,217.194c0-0.599,0.489-1.089,1.089-1.089l0,0c0.599,0,1.089,0.49,1.089,1.089l0,0c0,0.599-0.49,1.089-1.089,1.089
						l0,0C445.012,218.283,444.523,217.793,444.523,217.194z M434.884,217.194c0-0.599,0.49-1.089,1.089-1.089l0,0
						c0.599,0,1.089,0.49,1.089,1.089l0,0c0,0.599-0.49,1.089-1.089,1.089l0,0C435.375,218.283,434.884,217.793,434.884,217.194z"/>
				</g>
				<g id="XMLID_10136_">
					<path id="XMLID_10140_" style="fill:#E25959;" d="M522.714,218.283c-0.283,0-0.567-0.12-0.773-0.316
						c-0.197-0.207-0.316-0.49-0.316-0.773c0-0.283,0.119-0.566,0.316-0.773c0.403-0.403,1.143-0.403,1.546,0
						c0.196,0.207,0.316,0.49,0.316,0.773c0,0.283-0.12,0.566-0.316,0.773C523.28,218.163,522.997,218.283,522.714,218.283z"/>
				</g>
			</g>
			<path style="fill:#FFFFFF;" d="M326.97,222.661h-8.484v4.905h8.484c1.25,0,2.267,1.017,2.267,2.267v19.337
				c-0.713-0.239-1.474-0.373-2.267-0.373h-8.484v4.905h8.484c1.25,0,2.267,1.017,2.267,2.267v18.104c0,5.128-4.171,9.3-9.3,9.3
				h-30.182v4.905h30.182h1.089c7.232,0,13.116-5.884,13.116-13.116v-1.089V255.97v-26.136
				C334.142,225.879,330.924,222.661,326.97,222.661z"/>
			<g>
				<path style="fill:none;stroke:#640917;stroke-width:2.3202;stroke-miterlimit:10;" d="M288.984,288.269h34.078
					c5.883,0,10.669-4.786,10.669-10.669v-47.896c0-3.955-3.217-7.173-7.172-7.173h-3.298c-0.785-1.148-2.103-1.903-3.599-1.903
					h-1.588h-6.919h-3.245v8.712h3.245h6.919h1.588c1.496,0,2.814-0.755,3.599-1.904h3.298c1.25,0,2.267,1.017,2.267,2.267V277.6
					c0,3.178-2.586,5.764-5.764,5.764h-34.078"/>
				<path style="fill:none;stroke:#640917;stroke-width:2.3202;stroke-miterlimit:10;" d="M308.54,293.555h47.24
					c5.883,0,10.669-4.786,10.669-10.669v-53.182c0-3.955-3.217-7.173-7.172-7.173h-3.298c-0.784-1.148-2.103-1.903-3.598-1.903
					h-1.588h-6.919h-3.245v8.712h3.245h6.919h1.588c1.496,0,2.814-0.755,3.598-1.904h3.298c1.25,0,2.267,1.017,2.267,2.267v53.182
					c0,3.178-2.586,5.764-5.764,5.764h-46.888"/>
				<path style="fill:none;stroke:#640917;stroke-width:2.3202;stroke-miterlimit:10;" d="M364.297,288.65h23.37
					c3.178,0,5.764-2.585,5.764-5.764v-53.182c0-1.25-1.017-2.267-2.267-2.267h-3.298c-0.784,1.148-2.103,1.904-3.598,1.904h-1.588
					h-6.919h-3.245v-8.712h3.245h6.919h1.588c1.496,0,2.814,0.755,3.598,1.903h3.298c3.955,0,7.172,3.218,7.172,7.173v53.182
					c0,5.883-4.787,10.669-10.669,10.669h-30.24"/>
				<g>
					<path style="fill:none;stroke:#640917;stroke-width:2.3202;stroke-miterlimit:10;" d="M289.513,298.84h133.653
						c5.883,0,10.67-4.786,10.67-10.669v-58.467c0-3.955-3.218-7.173-7.172-7.173h-3.298c-0.785-1.148-2.103-1.903-3.598-1.903
						h-1.588h-10.345l0.066,8.712h10.279h1.588c1.496,0,2.814-0.755,3.598-1.904h3.298c1.25,0,2.267,1.017,2.267,2.267v58.467
						c0,3.178-2.586,5.764-5.764,5.764H289.513"/>
				</g>
				<path style="fill:none;stroke:#640917;stroke-width:2.3202;stroke-miterlimit:10;" d="M419.523,298.84h38.224
					c5.883,0,10.669-4.786,10.669-10.669v-58.467c0-3.955-3.218-7.173-7.172-7.173h-3.298c-0.785-1.148-2.103-1.903-3.598-1.903
					h-1.588h-6.919h-3.245v8.712h3.245h6.919h1.588c1.496,0,2.814-0.755,3.598-1.904h3.298c1.25,0,2.267,1.017,2.267,2.267v58.467
					c0,3.178-2.586,5.764-5.764,5.764h-25.002"/>
				<path style="fill:none;stroke:#640917;stroke-width:2.3202;stroke-miterlimit:10;" d="M456.255,298.84h38.224
					c5.883,0,10.669-4.786,10.669-10.669v-58.467c0-3.955-3.218-7.173-7.172-7.173h-3.298c-0.785-1.148-2.103-1.903-3.598-1.903
					h-1.588h-6.919h-3.245v8.712h3.245h6.919h1.588c1.496,0,2.814-0.755,3.598-1.904h3.298c1.25,0,2.267,1.017,2.267,2.267v58.467
					c0,3.178-2.586,5.764-5.764,5.764h-27.385"/>
				<path style="fill:none;stroke:#640917;stroke-width:2.3202;stroke-miterlimit:10;" d="M496.691,298.84h28.971
					c5.883,0,10.669-4.786,10.669-10.669v-58.467c0-3.955-3.218-7.173-7.172-7.173h-3.298c-0.784-1.148-2.103-1.903-3.599-1.903
					h-1.588h-6.919h-3.246v8.712h3.246h6.919h1.588c1.496,0,2.814-0.755,3.599-1.904h3.298c1.25,0,2.267,1.017,2.267,2.267v58.467
					c0,3.178-2.586,5.764-5.764,5.764h-22.628"/>
			</g>
			
				<rect id="XMLID_7293_" x="298.135" y="283.195" style="fill:#FFD671;stroke:#640917;stroke-width:2.3202;stroke-miterlimit:10;" width="10.186" height="16.714"/>
			<g>
				<path style="fill:none;stroke:#640917;stroke-width:2.3202;stroke-miterlimit:10;" d="M328.223,248.959h-4.961
					c-0.785-1.148-2.103-1.904-3.599-1.904h-1.588h-6.919h-3.245v8.712h3.245h6.919h1.588c1.496,0,2.814-0.755,3.599-1.904h4.961"/>
			</g>
			<g>
				<path style="fill:none;stroke:#640917;stroke-width:2.3202;stroke-miterlimit:10;" d="M360.889,248.959h-5.412
					c-0.785-1.148-2.103-1.904-3.598-1.904h-1.588h-6.919h-3.245v8.712h3.245h6.919h1.588c1.496,0,2.814-0.755,3.598-1.904h5.412"/>
			</g>
			<g>
				<path style="fill:none;stroke:#640917;stroke-width:2.3202;stroke-miterlimit:10;" d="M392.486,250.016h-5.021
					c-0.785-1.148-2.103-1.904-3.598-1.904h-1.588h-6.919h-3.245v8.712h3.245h6.919h1.588c1.496,0,2.814-0.755,3.598-1.904h5.021"/>
			</g>
			<g>
				<path style="fill:none;stroke:#640917;stroke-width:2.3202;stroke-miterlimit:10;" d="M428.288,248.959h-5.412
					c-0.785-1.148-2.103-1.904-3.599-1.904h-1.588h-9.855l0.066,8.712h9.789h1.588c1.496,0,2.814-0.755,3.599-1.904h6.165"/>
			</g>
			<g>
				<path style="fill:none;stroke:#640917;stroke-width:2.3202;stroke-miterlimit:10;" d="M462.735,250.021
					c-0.088-0.003-1.766-0.005-1.855-0.005h-3.298c-0.785-1.148-2.103-1.904-3.598-1.904h-1.588h-6.919h-3.245v8.712h3.245h6.919
					h1.588c1.496,0,2.814-0.755,3.598-1.904h5.285"/>
			</g>
			<g>
				<path style="fill:none;stroke:#640917;stroke-width:2.3202;stroke-miterlimit:10;" d="M499.863,248.959h-5.638
					c-0.785-1.148-2.103-1.904-3.598-1.904h-1.588h-6.919h-3.245v8.712h3.245h6.919h1.588c1.496,0,2.814-0.755,3.598-1.904h5.638"/>
			</g>
			<g>
				<path style="fill:none;stroke:#640917;stroke-width:2.3202;stroke-miterlimit:10;" d="M530.649,250.016h-5.594
					c-0.785-1.148-2.103-1.904-3.599-1.904h-1.588h-6.919h-2.188v8.712h2.188h6.919h1.588c1.496,0,2.814-0.755,3.599-1.904h5.594"/>
			</g>
		</g>
		<polygon id="XMLID_8996_" style="opacity:0.52;fill:#640917;" points="545.783,563.609 493.903,584.398 290.225,584.398 
			290.225,550.278 545.783,550.278 		"/>
		<g id="XMLID_9455_">
			
				<rect id="XMLID_9463_" x="289.521" y="542.421" style="fill:#E25959;stroke:#640917;stroke-width:2.3202;stroke-linecap:round;stroke-miterlimit:10;" width="255.558" height="8.168"/>
			
				<rect id="XMLID_9462_" x="289.521" y="512.2" style="fill:#CDE0DF;stroke:#640917;stroke-width:2.3202;stroke-linecap:round;stroke-miterlimit:10;" width="255.558" height="30.22"/>
			<g id="XMLID_9459_">
				<circle id="XMLID_9461_" style="fill:#86ADAD;" cx="298.959" cy="527.174" r="4.356"/>
				
					<rect id="XMLID_9460_" x="298.142" y="520.504" transform="matrix(0.7071 -0.7071 0.7071 0.7071 -285.2056 365.8016)" style="fill:#CDE0DF;" width="1.634" height="13.341"/>
			</g>
			<g id="XMLID_9456_">
				<circle id="XMLID_9458_" style="fill:#86ADAD;" cx="532.651" cy="527.174" r="4.356"/>
				
					<rect id="XMLID_9457_" x="531.834" y="520.504" transform="matrix(-0.7071 -0.7071 0.7071 -0.7071 536.5228 1276.5839)" style="fill:#CDE0DF;" width="1.634" height="13.341"/>
			</g>
		</g>
		<rect id="XMLID_9454_" x="309.144" y="317.537" style="fill:#84A5A2;" width="10.164" height="8.712"/>
		<rect id="XMLID_9453_" x="341.237" y="317.537" style="fill:#A4C1BF;" width="10.164" height="8.712"/>
		<rect id="XMLID_9452_" x="309.144" y="343.674" style="fill:#84A5A2;" width="10.164" height="8.712"/>
		<rect id="XMLID_9451_" x="341.237" y="317.537" style="fill:#84A5A2;" width="10.164" height="8.712"/>
		<rect id="XMLID_9450_" x="373.33" y="317.537" style="fill:#A4C1BF;" width="10.164" height="8.712"/>
		<rect id="XMLID_9449_" x="341.237" y="343.674" style="fill:#84A5A2;" width="10.164" height="8.712"/>
		<rect id="XMLID_9448_" x="373.33" y="317.537" style="fill:#A4C1BF;" width="10.164" height="8.712"/>
		<rect id="XMLID_9447_" x="373.33" y="343.674" style="fill:#A4C1BF;" width="10.164" height="8.712"/>
		<rect id="XMLID_9446_" x="405.423" y="317.537" style="fill:#84A5A2;" width="10.164" height="8.712"/>
		<rect id="XMLID_9445_" x="437.516" y="317.537" style="fill:#A4C1BF;" width="10.164" height="8.712"/>
		<rect id="XMLID_9444_" x="405.423" y="343.674" style="fill:#A4C1BF;" width="10.164" height="8.712"/>
		<rect id="XMLID_9443_" x="437.516" y="317.537" style="fill:#A4C1BF;" width="10.164" height="8.712"/>
		<rect id="XMLID_9442_" x="469.609" y="317.537" style="fill:#A4C1BF;" width="10.164" height="8.712"/>
		<rect id="XMLID_9441_" x="501.702" y="317.537" style="fill:#A4C1BF;" width="10.164" height="8.712"/>
		<rect id="XMLID_9440_" x="469.609" y="343.674" style="fill:#84A5A2;" width="10.164" height="8.712"/>
		<rect id="XMLID_9439_" x="501.702" y="343.674" style="fill:#84A5A2;" width="10.164" height="8.712"/>
		<g id="XMLID_9432_">
			<rect id="XMLID_9438_" x="437.482" y="317.537" style="fill:#A4C1BF;" width="10.164" height="8.712"/>
			<path id="XMLID_9437_" style="fill:#FFFFFF;" d="M449.234,326.25h-8.507v-8.712h8.507c2.406,0,4.356,1.95,4.356,4.356l0,0
				C453.59,324.299,451.64,326.25,449.234,326.25z"/>
			<path id="XMLID_9436_" style="fill:none;stroke:#FFFFFF;stroke-width:4.6405;stroke-miterlimit:10;" d="M447.646,321.893h8.484
				c2.607,0,4.72,2.113,4.72,4.72v35.03"/>
			<rect id="XMLID_9435_" x="437.482" y="343.674" style="fill:#A4C1BF;" width="10.164" height="8.712"/>
			<path id="XMLID_9434_" style="fill:#FFFFFF;" d="M449.234,352.386h-8.507v-8.712h8.507c2.406,0,4.356,1.95,4.356,4.356l0,0
				C453.59,350.436,451.64,352.386,449.234,352.386z"/>
			<path id="XMLID_9433_" style="fill:none;stroke:#FFFFFF;stroke-width:4.6405;stroke-miterlimit:10;" d="M447.646,348.03h8.484
				c2.607,0,4.72,2.113,4.72,4.72v30.409c0,5.258-4.263,9.521-9.521,9.521H290.578"/>
			<path style="fill:none;stroke:#640917;stroke-width:2.3202;stroke-miterlimit:10;" d="M289.893,395.333h162.654
				c5.883,0,10.669-4.786,10.669-10.669v-32.04c0-3.955-3.218-7.173-7.172-7.173h-3.298c-0.784-1.148-2.103-1.904-3.598-1.904
				h-1.588h-6.919h-3.245v8.712h3.245h6.919h1.588c1.496,0,2.814-0.755,3.598-1.904h3.298c1.25,0,2.267,1.017,2.267,2.267v32.04
				c0,3.178-2.586,5.764-5.764,5.764H289.893"/>
		</g>
		<g id="XMLID_9428_">
			<rect id="XMLID_9431_" x="373.313" y="317.537" style="fill:#84A5A2;" width="10.164" height="8.712"/>
			<rect id="XMLID_6954_" x="373.313" y="343.674" style="fill:#84A5A2;" width="10.164" height="8.712"/>
			<rect id="XMLID_9430_" x="373.313" y="343.674" style="fill:#A4C1BF;" width="10.164" height="8.712"/>
		</g>
		<g id="XMLID_9422_">
			<rect id="XMLID_9427_" x="312.593" y="522.047" style="fill:#A4C1BF;" width="10.164" height="8.712"/>
			<path id="XMLID_9424_" style="fill:#FFD671;" d="M324.345,530.759h-8.507v-8.712h8.507c2.406,0,4.356,1.95,4.356,4.356l0,0
				C328.701,528.809,326.751,530.759,324.345,530.759z"/>
			<path id="XMLID_9423_" style="fill:none;stroke:#FFD671;stroke-width:4.6405;stroke-miterlimit:10;" d="M322.757,526.403h8.484
				c2.607,0,4.72,2.113,4.72,4.72v27.811c0,4.538-3.679,8.217-8.217,8.217h-38.224"/>
		</g>
		<g id="XMLID_9260_">
			
				<rect id="XMLID_9340_" x="289.521" y="460.61" style="fill:#E25959;stroke:#640917;stroke-width:2.3202;stroke-linecap:round;stroke-miterlimit:10;" width="255.558" height="8.168"/>
			
				<rect id="XMLID_9339_" x="290.225" y="406.874" style="fill:#B6D3D1;stroke:#640917;stroke-width:2.3202;stroke-linecap:round;stroke-miterlimit:10;" width="255.557" height="54.088"/>
			<polygon id="XMLID_8481_" style="opacity:0.52;fill:#640917;" points="545.783,481.512 493.903,502.302 290.225,502.302 
				290.225,468.182 545.783,468.182 			"/>
			<rect x="323.501" y="460.34" style="opacity:0.41;fill:#640917;" width="8.822" height="8.308"/>
			<rect x="356.269" y="460.34" style="opacity:0.41;fill:#640917;" width="8.822" height="8.308"/>
			<rect x="387.628" y="460.34" style="opacity:0.41;fill:#640917;" width="8.822" height="8.308"/>
			<rect x="399.784" y="460.34" style="opacity:0.41;fill:#640917;" width="8.822" height="8.308"/>
			<rect x="423.039" y="460.34" style="opacity:0.41;fill:#640917;" width="8.822" height="8.308"/>
			<rect x="458.449" y="460.34" style="opacity:0.41;fill:#640917;" width="8.822" height="8.308"/>
			<rect x="494.917" y="460.34" style="opacity:0.41;fill:#640917;" width="8.822" height="8.308"/>
			<rect x="526.099" y="460.34" style="opacity:0.41;fill:#640917;" width="8.822" height="8.308"/>
			<g id="XMLID_9334_">
				<path id="XMLID_9338_" style="fill:#86ADAD;" d="M303.315,417.775c0,2.406-1.95,4.356-4.356,4.356s-4.356-1.95-4.356-4.356
					c0-2.406,1.95-4.356,4.356-4.356S303.315,415.369,303.315,417.775z"/>
				<path id="XMLID_9337_" style="fill:#86ADAD;" d="M303.315,445.363c0,2.406-1.95,4.356-4.356,4.356s-4.356-1.95-4.356-4.356
					c0-2.406,1.95-4.356,4.356-4.356S303.315,442.957,303.315,445.363z"/>
				
					<rect id="XMLID_9336_" x="298.142" y="411.104" transform="matrix(0.7071 -0.7071 0.7071 0.7071 -207.8484 333.7592)" style="fill:#B6D3D1;" width="1.634" height="13.341"/>
				
					<rect id="XMLID_9335_" x="298.142" y="438.693" transform="matrix(0.7071 -0.7071 0.7071 0.7071 -227.3565 341.8397)" style="fill:#B6D3D1;" width="1.634" height="13.341"/>
			</g>
			<g id="XMLID_9329_">
				<path id="XMLID_9333_" style="fill:#86ADAD;" d="M528.294,417.775c0,2.406,1.95,4.356,4.356,4.356
					c2.406,0,4.356-1.95,4.356-4.356c0-2.406-1.95-4.356-4.356-4.356C530.245,413.419,528.294,415.369,528.294,417.775z"/>
				<path id="XMLID_9332_" style="fill:#A4C1BF;" d="M528.294,445.363c0,2.406,1.95,4.356,4.356,4.356
					c2.406,0,4.356-1.95,4.356-4.356c0-2.406-1.95-4.356-4.356-4.356C530.245,441.007,528.294,442.957,528.294,445.363z"/>
				
					<rect id="XMLID_9331_" x="531.834" y="411.104" transform="matrix(-0.7071 -0.7071 0.7071 -0.7071 613.88 1089.8269)" style="fill:#B6D3D1;" width="1.634" height="13.341"/>
				
					<rect id="XMLID_9330_" x="531.834" y="438.693" transform="matrix(-0.7071 -0.7071 0.7071 -0.7071 594.3719 1136.9236)" style="fill:#B6D3D1;" width="1.634" height="13.341"/>
			</g>
			<rect id="XMLID_9328_" x="309.144" y="414.871" style="fill:#85A8AA;" width="10.164" height="8.712"/>
			<path id="XMLID_9327_" style="fill:#FFFFFF;" d="M320.897,423.583h-7.449v-8.712h7.449c2.406,0,4.356,1.95,4.356,4.356l0,0
				C325.253,421.633,323.302,423.583,320.897,423.583z"/>
			<path id="XMLID_9326_" style="fill:none;stroke:#FFFFFF;stroke-width:4.6405;stroke-miterlimit:10;" d="M319.309,419.227h8.484
				c2.607,0,4.72,2.113,4.72,4.72v44.241c0,6.491-5.262,11.752-11.752,11.752h-30.183"/>
			<rect id="XMLID_9325_" x="309.144" y="441.007" style="fill:#85A8AA;" width="10.164" height="8.712"/>
			<path id="XMLID_9324_" style="fill:#FFFFFF;" d="M320.897,449.719h-7.449v-8.712h7.449c2.406,0,4.356,1.95,4.356,4.356v0
				C325.253,447.769,323.302,449.719,320.897,449.719z"/>
			<path id="XMLID_9323_" style="fill:none;stroke:#FFFFFF;stroke-width:4.6405;stroke-miterlimit:10;" d="M319.309,445.363h8.484
				c2.607,0,4.72,2.113,4.72,4.72v19.193c0,5.889-4.774,10.663-10.663,10.663h-31.272"/>
			<g id="XMLID_9316_">
				<rect id="XMLID_9322_" x="341.237" y="414.871" style="fill:#85A8AA;" width="10.164" height="8.712"/>
				<path id="XMLID_9321_" style="fill:#FFFFFF;" d="M352.99,423.583h-7.449v-8.712h7.449c2.406,0,4.356,1.95,4.356,4.356l0,0
					C357.346,421.633,355.395,423.583,352.99,423.583z"/>
				<path id="XMLID_9320_" style="fill:none;stroke:#FFFFFF;stroke-width:4.6405;stroke-miterlimit:10;" d="M351.401,419.227h8.484
					c2.607,0,4.72,2.113,4.72,4.72v35.029"/>
				<rect id="XMLID_9319_" x="341.237" y="441.007" style="fill:#85A8AA;" width="10.164" height="8.712"/>
				<path id="XMLID_9318_" style="fill:#FFFFFF;" d="M352.99,449.719h-7.449v-8.712h7.449c2.406,0,4.356,1.95,4.356,4.356v0
					C357.346,447.769,355.395,449.719,352.99,449.719z"/>
				<path id="XMLID_9317_" style="fill:none;stroke:#FFFFFF;stroke-width:4.6405;stroke-miterlimit:10;" d="M351.401,445.363h8.484
					c2.607,0,4.72,2.113,4.72,4.72v24.247c0,4.752-3.853,9.662-8.605,9.662h-65.423"/>
			</g>
			<g id="XMLID_9309_">
				<rect id="XMLID_9315_" x="373.363" y="414.871" style="fill:#85A8AA;" width="10.164" height="8.712"/>
				<path id="XMLID_9314_" style="fill:#FFFFFF;" d="M385.116,423.583h-7.449v-8.712h7.449c2.406,0,4.356,1.95,4.356,4.356l0,0
					C389.472,421.633,387.522,423.583,385.116,423.583z"/>
				<path id="XMLID_9313_" style="fill:none;stroke:#FFFFFF;stroke-width:4.6405;stroke-miterlimit:10;" d="M383.528,419.227h8.484
					c2.607,0,4.72,2.113,4.72,4.72v35.029"/>
				<rect id="XMLID_9312_" x="373.363" y="441.007" style="fill:#85A8AA;" width="10.164" height="8.712"/>
				<path id="XMLID_9311_" style="fill:#FFFFFF;" d="M385.116,449.719h-7.449v-8.712h7.449c2.406,0,4.356,1.95,4.356,4.356v0
					C389.472,447.769,387.522,449.719,385.116,449.719z"/>
				<path id="XMLID_9310_" style="fill:none;stroke:#FFFFFF;stroke-width:4.6405;stroke-miterlimit:10;" d="M383.528,445.363h8.484
					c2.607,0,4.72,2.113,4.72,4.72v27.241c0,4.602-3.731,8.332-8.332,8.332h-97.822"/>
			</g>
			<g id="XMLID_9302_">
				<rect id="XMLID_9308_" x="408.682" y="414.871" style="fill:#A4C1BF;" width="10.164" height="8.712"/>
				<path id="XMLID_9307_" style="fill:#FFFFFF;" d="M420.435,423.583h-8.507v-8.712h8.507c2.406,0,4.356,1.95,4.356,4.356l0,0
					C424.791,421.633,422.841,423.583,420.435,423.583z"/>
				<path id="XMLID_9306_" style="fill:none;stroke:#FFFFFF;stroke-width:4.6405;stroke-miterlimit:10;" d="M418.847,419.227h8.484
					c2.607,0,4.72,2.113,4.72,4.72v35.029"/>
				<rect id="XMLID_9305_" x="408.682" y="441.007" style="fill:#A4C1BF;" width="10.164" height="8.712"/>
				<path id="XMLID_9304_" style="fill:#FFFFFF;" d="M420.435,449.719h-8.507v-8.712h8.507c2.406,0,4.356,1.95,4.356,4.356v0
					C424.791,447.769,422.841,449.719,420.435,449.719z"/>
				<path id="XMLID_9303_" style="fill:none;stroke:#FFFFFF;stroke-width:4.6405;stroke-miterlimit:10;" d="M418.847,445.363h8.484
					c2.607,0,4.72,2.113,4.72,4.72v30.409c0,5.258-4.263,9.521-9.521,9.521H290.578"/>
			</g>
			<g id="XMLID_9295_">
				<rect id="XMLID_9301_" x="443.168" y="414.871" style="fill:#85A8AA;" width="10.164" height="8.712"/>
				<path id="XMLID_9300_" style="fill:#FFFFFF;" d="M454.921,423.583h-7.449v-8.712h7.449c2.406,0,4.356,1.95,4.356,4.356l0,0
					C459.277,421.633,457.327,423.583,454.921,423.583z"/>
				<path id="XMLID_9299_" style="fill:none;stroke:#FFFFFF;stroke-width:4.6405;stroke-miterlimit:10;" d="M453.332,419.227h8.484
					c2.607,0,4.72,2.113,4.72,4.72v35.029"/>
				<rect id="XMLID_9298_" x="443.168" y="441.007" style="fill:#85A8AA;" width="10.164" height="8.712"/>
				<path id="XMLID_9297_" style="fill:#FFFFFF;" d="M454.921,449.719h-7.449v-8.712h7.449c2.406,0,4.356,1.95,4.356,4.356v0
					C459.277,447.769,457.327,449.719,454.921,449.719z"/>
				<path id="XMLID_9296_" style="fill:none;stroke:#FFFFFF;stroke-width:4.6405;stroke-miterlimit:10;" d="M453.332,445.363h8.484
					c2.607,0,4.72,2.113,4.72,4.72v30.409c0,5.258-4.262,9.521-9.521,9.521h-133.01"/>
			</g>
			<g id="XMLID_9288_">
				<rect id="XMLID_9294_" x="479.948" y="414.871" style="fill:#85A8AA;" width="10.164" height="8.712"/>
				<path id="XMLID_9293_" style="fill:#FFFFFF;" d="M491.7,423.583h-7.449v-8.712h7.449c2.406,0,4.356,1.95,4.356,4.356l0,0
					C496.056,421.633,494.106,423.583,491.7,423.583z"/>
				<path id="XMLID_9292_" style="fill:none;stroke:#FFFFFF;stroke-width:4.6405;stroke-miterlimit:10;" d="M490.112,419.227h8.484
					c2.607,0,4.72,2.113,4.72,4.72v35.029"/>
				<rect id="XMLID_9291_" x="479.948" y="441.007" style="fill:#85A8AA;" width="10.164" height="8.712"/>
				<path id="XMLID_9290_" style="fill:#FFFFFF;" d="M491.7,449.719h-7.449v-8.712h7.449c2.406,0,4.356,1.95,4.356,4.356v0
					C496.056,447.769,494.106,449.719,491.7,449.719z"/>
				<path id="XMLID_9289_" style="fill:none;stroke:#FFFFFF;stroke-width:4.6405;stroke-miterlimit:10;" d="M490.112,445.363h8.484
					c2.607,0,4.72,2.113,4.72,4.72v30.409c0,5.258-4.263,9.521-9.521,9.521h-133.01"/>
			</g>
			<g id="XMLID_9281_">
				<rect id="XMLID_9287_" x="511.521" y="414.871" style="fill:#85A8AA;" width="10.164" height="8.712"/>
				<path id="XMLID_9286_" style="fill:#FFFFFF;" d="M523.274,423.583h-7.45v-8.712h7.45c2.406,0,4.356,1.95,4.356,4.356l0,0
					C527.63,421.633,525.679,423.583,523.274,423.583z"/>
				<path id="XMLID_9285_" style="fill:none;stroke:#FFFFFF;stroke-width:4.6405;stroke-miterlimit:10;" d="M521.685,419.227h8.484
					c2.607,0,4.72,2.113,4.72,4.72v35.029"/>
				<rect id="XMLID_9284_" x="511.521" y="441.007" style="fill:#85A8AA;" width="10.164" height="8.712"/>
				<path id="XMLID_9283_" style="fill:#FFFFFF;" d="M523.274,449.719h-7.45v-8.712h7.45c2.406,0,4.356,1.95,4.356,4.356v0
					C527.63,447.769,525.679,449.719,523.274,449.719z"/>
				<path id="XMLID_9282_" style="fill:none;stroke:#FFFFFF;stroke-width:4.6405;stroke-miterlimit:10;" d="M521.685,445.363h8.484
					c2.607,0,4.72,2.113,4.72,4.72v30.409c0,5.258-4.262,9.521-9.521,9.521h-133.01"/>
			</g>
			<g id="XMLID_9261_">
				<g id="XMLID_9275_">
					<path id="XMLID_9276_" style="fill:#E25959;" d="M426.895,411.604c-0.295,0-0.567-0.12-0.773-0.327
						c-0.197-0.196-0.316-0.468-0.316-0.762c0-0.294,0.119-0.566,0.316-0.773c0.403-0.403,1.133-0.403,1.546,0
						c0.196,0.207,0.316,0.49,0.316,0.773c0,0.294-0.12,0.566-0.327,0.773C427.461,411.483,427.178,411.604,426.895,411.604z"/>
				</g>
				<g id="XMLID_9264_">
					<path id="XMLID_9265_" style="fill:#E25959;" d="M512.546,410.515c0-0.599,0.49-1.089,1.089-1.089l0,0
						c0.6,0,1.089,0.49,1.089,1.089l0,0c0,0.599-0.489,1.089-1.089,1.089l0,0C513.036,411.604,512.546,411.113,512.546,410.515z
						 M502.909,410.515c0-0.599,0.49-1.089,1.089-1.089l0,0c0.599,0,1.089,0.49,1.089,1.089l0,0c0,0.599-0.49,1.089-1.089,1.089l0,0
						C503.399,411.604,502.909,411.113,502.909,410.515z M493.271,410.515c0-0.599,0.489-1.089,1.089-1.089l0,0
						c0.599,0,1.089,0.49,1.089,1.089l0,0c0,0.599-0.49,1.089-1.089,1.089l0,0C493.76,411.604,493.271,411.113,493.271,410.515z
						 M483.633,410.515c0-0.599,0.49-1.089,1.089-1.089l0,0c0.599,0,1.089,0.49,1.089,1.089l0,0c0,0.599-0.49,1.089-1.089,1.089l0,0
						C484.123,411.604,483.633,411.113,483.633,410.515z M473.995,410.515c0-0.599,0.49-1.089,1.089-1.089l0,0
						c0.599,0,1.089,0.49,1.089,1.089l0,0c0,0.599-0.49,1.089-1.089,1.089l0,0C474.486,411.604,473.995,411.113,473.995,410.515z
						 M464.357,410.515c0-0.599,0.49-1.089,1.089-1.089l0,0c0.6,0,1.089,0.49,1.089,1.089l0,0c0,0.599-0.489,1.089-1.089,1.089l0,0
						C464.847,411.604,464.357,411.113,464.357,410.515z M454.719,410.515c0-0.599,0.49-1.089,1.089-1.089l0,0
						c0.599,0,1.089,0.49,1.089,1.089l0,0c0,0.599-0.49,1.089-1.089,1.089l0,0C455.21,411.604,454.719,411.113,454.719,410.515z
						 M445.082,410.515c0-0.599,0.489-1.089,1.089-1.089l0,0c0.599,0,1.089,0.49,1.089,1.089l0,0c0,0.599-0.49,1.089-1.089,1.089
						l0,0C445.571,411.604,445.082,411.113,445.082,410.515z M435.443,410.515c0-0.599,0.49-1.089,1.089-1.089l0,0
						c0.599,0,1.089,0.49,1.089,1.089l0,0c0,0.599-0.49,1.089-1.089,1.089l0,0C435.934,411.604,435.443,411.113,435.443,410.515z"/>
				</g>
				<g id="XMLID_9262_">
					<path id="XMLID_9263_" style="fill:#E25959;" d="M523.274,411.604c-0.283,0-0.567-0.12-0.773-0.316
						c-0.197-0.207-0.316-0.49-0.316-0.773c0-0.283,0.119-0.566,0.316-0.773c0.403-0.403,1.143-0.403,1.546,0
						c0.196,0.207,0.316,0.49,0.316,0.773c0,0.283-0.12,0.566-0.316,0.773C523.839,411.483,523.557,411.604,523.274,411.604z"/>
				</g>
			</g>
		</g>
		<g id="XMLID_9239_">
			<g id="XMLID_9258_">
				<path id="XMLID_9259_" style="fill:#A4C1BF;" d="M426.895,315.632c-0.295,0-0.567-0.12-0.773-0.327
					c-0.197-0.196-0.316-0.468-0.316-0.762c0-0.294,0.119-0.566,0.316-0.773c0.403-0.403,1.133-0.403,1.546,0
					c0.196,0.207,0.316,0.49,0.316,0.773c0,0.294-0.12,0.566-0.327,0.773C427.461,315.511,427.178,315.632,426.895,315.632z"/>
			</g>
			<path id="XMLID_9248_" style="fill:#A4C1BF;" d="M512.546,314.543c0-0.599,0.49-1.089,1.089-1.089l0,0
				c0.6,0,1.089,0.49,1.089,1.089l0,0c0,0.599-0.489,1.089-1.089,1.089l0,0C513.036,315.632,512.546,315.141,512.546,314.543z
				 M502.909,314.543c0-0.599,0.49-1.089,1.089-1.089l0,0c0.599,0,1.089,0.49,1.089,1.089l0,0c0,0.599-0.49,1.089-1.089,1.089l0,0
				C503.399,315.632,502.909,315.141,502.909,314.543z M493.271,314.543c0-0.599,0.489-1.089,1.089-1.089l0,0
				c0.599,0,1.089,0.49,1.089,1.089l0,0c0,0.599-0.49,1.089-1.089,1.089l0,0C493.76,315.632,493.271,315.141,493.271,314.543z
				 M483.633,314.543c0-0.599,0.49-1.089,1.089-1.089l0,0c0.599,0,1.089,0.49,1.089,1.089l0,0c0,0.599-0.49,1.089-1.089,1.089l0,0
				C484.123,315.632,483.633,315.141,483.633,314.543z M473.995,314.543c0-0.599,0.49-1.089,1.089-1.089l0,0
				c0.599,0,1.089,0.49,1.089,1.089l0,0c0,0.599-0.49,1.089-1.089,1.089l0,0C474.486,315.632,473.995,315.141,473.995,314.543z
				 M464.357,314.543c0-0.599,0.49-1.089,1.089-1.089l0,0c0.6,0,1.089,0.49,1.089,1.089l0,0c0,0.599-0.489,1.089-1.089,1.089l0,0
				C464.847,315.632,464.357,315.141,464.357,314.543z M454.719,314.543c0-0.599,0.49-1.089,1.089-1.089l0,0
				c0.599,0,1.089,0.49,1.089,1.089l0,0c0,0.599-0.49,1.089-1.089,1.089l0,0C455.21,315.632,454.719,315.141,454.719,314.543z
				 M445.082,314.543c0-0.599,0.489-1.089,1.089-1.089l0,0c0.599,0,1.089,0.49,1.089,1.089l0,0c0,0.599-0.49,1.089-1.089,1.089l0,0
				C445.571,315.632,445.082,315.141,445.082,314.543z M435.443,314.543c0-0.599,0.49-1.089,1.089-1.089l0,0
				c0.599,0,1.089,0.49,1.089,1.089l0,0c0,0.599-0.49,1.089-1.089,1.089l0,0C435.934,315.632,435.443,315.141,435.443,314.543z"/>
			<g id="XMLID_9246_">
				<path id="XMLID_9247_" style="fill:#E25959;" d="M523.274,315.632c-0.283,0-0.567-0.12-0.773-0.316
					c-0.197-0.207-0.316-0.49-0.316-0.773c0-0.284,0.119-0.566,0.316-0.773c0.403-0.403,1.143-0.403,1.546,0
					c0.196,0.207,0.316,0.49,0.316,0.773c0,0.283-0.12,0.566-0.316,0.773C523.839,315.511,523.557,315.632,523.274,315.632z"/>
			</g>
			<g id="XMLID_9244_">
				<path id="XMLID_9245_" style="fill:#E25959;" d="M513.635,315.632c-0.283,0-0.567-0.12-0.773-0.316
					c-0.197-0.207-0.316-0.49-0.316-0.773c0-0.284,0.119-0.566,0.316-0.773c0.403-0.403,1.143-0.403,1.546,0
					c0.196,0.207,0.316,0.49,0.316,0.773c0,0.283-0.12,0.566-0.316,0.773C514.201,315.511,513.918,315.632,513.635,315.632z"/>
			</g>
			<g id="XMLID_9242_">
				<path id="XMLID_9243_" style="fill:#E25959;" d="M494.36,315.632c-0.283,0-0.567-0.12-0.773-0.316
					c-0.197-0.207-0.316-0.49-0.316-0.773c0-0.284,0.119-0.566,0.316-0.773c0.403-0.403,1.143-0.403,1.546,0
					c0.196,0.207,0.316,0.49,0.316,0.773c0,0.283-0.12,0.566-0.316,0.773C494.926,315.511,494.643,315.632,494.36,315.632z"/>
			</g>
			<g id="XMLID_9240_">
				<path id="XMLID_9241_" style="fill:#E25959;" d="M484.722,315.632c-0.283,0-0.567-0.12-0.773-0.316
					c-0.197-0.207-0.316-0.49-0.316-0.773c0-0.284,0.119-0.566,0.316-0.773c0.403-0.403,1.143-0.403,1.546,0
					c0.196,0.207,0.316,0.49,0.316,0.773c0,0.283-0.12,0.566-0.316,0.773C485.288,315.511,485.005,315.632,484.722,315.632z"/>
			</g>
		</g>
		
			<line id="XMLID_9238_" style="fill:#AF2727;stroke:#640917;stroke-width:2.3202;stroke-linecap:round;stroke-miterlimit:10;" x1="233.956" y1="686.263" x2="266.627" y2="686.263"/>
		
			<line id="XMLID_9237_" style="fill:#AF2727;stroke:#640917;stroke-width:2.3202;stroke-linecap:round;stroke-miterlimit:10;" x1="233.956" y1="692.978" x2="266.627" y2="692.978"/>
		
			<line id="XMLID_9236_" style="fill:#AF2727;stroke:#640917;stroke-width:2.3202;stroke-linecap:round;stroke-miterlimit:10;" x1="233.956" y1="700.239" x2="266.627" y2="700.239"/>
		
			<line id="XMLID_9235_" style="fill:#AF2727;stroke:#640917;stroke-width:2.3202;stroke-linecap:round;stroke-miterlimit:10;" x1="233.956" y1="700.239" x2="266.627" y2="700.239"/>
		
			<line id="XMLID_9234_" style="fill:#AF2727;stroke:#640917;stroke-width:2.3202;stroke-linecap:round;stroke-miterlimit:10;" x1="233.956" y1="706.954" x2="266.627" y2="706.954"/>
		
			<line id="XMLID_9233_" style="fill:#AF2727;stroke:#640917;stroke-width:2.3202;stroke-linecap:round;stroke-miterlimit:10;" x1="233.956" y1="714.214" x2="266.627" y2="714.214"/>
		
			<line id="XMLID_9232_" style="fill:#AF2727;stroke:#640917;stroke-width:2.3202;stroke-linecap:round;stroke-miterlimit:10;" x1="233.956" y1="714.214" x2="266.627" y2="714.214"/>
		
			<line id="XMLID_9231_" style="fill:#AF2727;stroke:#640917;stroke-width:2.3202;stroke-linecap:round;stroke-miterlimit:10;" x1="233.956" y1="720.93" x2="266.627" y2="720.93"/>
		
			<line id="XMLID_9230_" style="fill:#AF2727;stroke:#640917;stroke-width:2.3202;stroke-linecap:round;stroke-miterlimit:10;" x1="233.956" y1="728.19" x2="266.627" y2="728.19"/>
		
			<line id="XMLID_9229_" style="fill:#AF2727;stroke:#640917;stroke-width:2.3202;stroke-linecap:round;stroke-miterlimit:10;" x1="233.956" y1="734.906" x2="266.627" y2="734.906"/>
		
			<line id="XMLID_9228_" style="fill:#AF2727;stroke:#640917;stroke-width:2.3202;stroke-linecap:round;stroke-miterlimit:10;" x1="233.956" y1="742.166" x2="266.627" y2="742.166"/>
		
			<line id="XMLID_9227_" style="fill:#AF2727;stroke:#8BA09E;stroke-width:2.3202;stroke-linecap:round;stroke-miterlimit:10;" x1="346.319" y1="521.684" x2="425.806" y2="521.684"/>
		
			<line id="XMLID_9226_" style="fill:#AF2727;stroke:#8BA09E;stroke-width:2.3202;stroke-linecap:round;stroke-miterlimit:10;" x1="346.319" y1="527.038" x2="425.806" y2="527.038"/>
		
			<line id="XMLID_9225_" style="fill:#AF2727;stroke:#8BA09E;stroke-width:2.3202;stroke-linecap:round;stroke-miterlimit:10;" x1="346.319" y1="532.665" x2="425.806" y2="532.665"/>
		<rect id="XMLID_9224_" x="436.152" y="520.519" style="fill:#640917;" width="33.487" height="9.65"/>
		<g id="XMLID_9215_">
			<g id="XMLID_9222_">
				<path id="XMLID_9223_" style="fill:#E25959;" d="M479.952,525c-0.578,0-1.133-0.24-1.546-0.643
					c-0.403-0.403-0.632-0.969-0.632-1.535c0-0.578,0.229-1.144,0.632-1.546c0.817-0.806,2.265-0.806,3.082,0
					c0.403,0.414,0.642,0.969,0.642,1.546c0,0.566-0.239,1.133-0.642,1.535C481.074,524.76,480.519,525,479.952,525z"/>
			</g>
			<g id="XMLID_9218_">
				<path id="XMLID_9219_" style="fill:#FFFFFF;" d="M502.745,522.822c0-1.209,0.97-2.178,2.178-2.178l0,0
					c1.199,0,2.178,0.969,2.178,2.178l0,0c0,1.198-0.979,2.178-2.178,2.178l0,0C503.715,525,502.745,524.02,502.745,522.822z
					 M490.254,522.822c0-1.209,0.981-2.178,2.178-2.178l0,0c1.209,0,2.178,0.969,2.178,2.178l0,0c0,1.198-0.969,2.178-2.178,2.178
					l0,0C491.235,525,490.254,524.02,490.254,522.822z"/>
			</g>
			<g id="XMLID_9216_">
				<path id="XMLID_9217_" style="fill:#FFFFFF;" d="M517.415,525c-0.578,0-1.144-0.24-1.546-0.643
					c-0.403-0.403-0.632-0.969-0.632-1.535c0-0.578,0.229-1.144,0.632-1.546c0.817-0.806,2.265-0.806,3.082,0
					c0.402,0.403,0.631,0.969,0.631,1.546c0,0.566-0.229,1.133-0.631,1.535C518.547,524.76,517.981,525,517.415,525z"/>
			</g>
		</g>
		
			<rect id="XMLID_9214_" x="289.521" y="650.506" style="fill:#AF2727;stroke:#640917;stroke-width:2.3202;stroke-linecap:round;stroke-miterlimit:10;" width="112.871" height="78.41"/>
		<path id="XMLID_9213_" style="fill:#9B1C1C;" d="M367.362,670.653H298.39c-0.702,0-1.271-0.569-1.271-1.271l0,0
			c0-0.702,0.569-1.271,1.271-1.271h68.971c0.702,0,1.271,0.569,1.271,1.271l0,0C368.632,670.084,368.063,670.653,367.362,670.653z"
			/>
		<path id="XMLID_9212_" style="fill:#9B1C1C;" d="M367.362,676.098H298.39c-0.702,0-1.271-0.569-1.271-1.271l0,0
			c0-0.702,0.569-1.271,1.271-1.271h68.971c0.702,0,1.271,0.569,1.271,1.271l0,0C368.632,675.53,368.063,676.098,367.362,676.098z"
			/>
		<path id="XMLID_9211_" style="fill:#9B1C1C;" d="M367.362,681.544H298.39c-0.702,0-1.271-0.569-1.271-1.271l0,0
			c0-0.702,0.569-1.271,1.271-1.271h68.971c0.702,0,1.271,0.569,1.271,1.271l0,0C368.632,680.975,368.063,681.544,367.362,681.544z"
			/>
		<path id="XMLID_9210_" style="fill:#9B1C1C;" d="M298.39,686.989c-0.702,0-1.271-0.569-1.271-1.271l0,0
			c0-0.702,0.569-1.271,1.271-1.271h68.971c0.702,0,1.271,0.569,1.271,1.271l0,0c0,0.702-0.569,1.271-1.271,1.271"/>
		<path id="XMLID_9209_" style="fill:#9B1C1C;" d="M367.362,692.434H298.39c-0.702,0-1.271-0.569-1.271-1.27l0,0
			c0-0.702,0.569-1.271,1.271-1.271h68.971c0.702,0,1.271,0.569,1.271,1.271l0,0C368.632,691.865,368.063,692.434,367.362,692.434z"
			/>
		<path id="XMLID_9208_" style="fill:#9B1C1C;" d="M367.362,697.879H298.39c-0.702,0-1.271-0.569-1.271-1.271l0,0
			c0-0.702,0.569-1.271,1.271-1.271h68.971c0.702,0,1.271,0.569,1.271,1.271l0,0C368.632,697.31,368.063,697.879,367.362,697.879z"
			/>
		<path id="XMLID_9207_" style="fill:#9B1C1C;" d="M367.362,703.324H298.39c-0.702,0-1.271-0.569-1.271-1.27l0,0
			c0-0.702,0.569-1.271,1.271-1.271h68.971c0.702,0,1.271,0.569,1.271,1.271l0,0C368.632,702.755,368.063,703.324,367.362,703.324z"
			/>
		<path id="XMLID_9206_" style="fill:#9B1C1C;" d="M367.362,708.769H298.39c-0.702,0-1.271-0.569-1.271-1.271l0,0
			c0-0.702,0.569-1.271,1.271-1.271h68.971c0.702,0,1.271,0.569,1.271,1.271l0,0C368.632,708.2,368.063,708.769,367.362,708.769z"/>
		<path id="XMLID_9205_" style="fill:#9B1C1C;" d="M367.362,714.214H298.39c-0.702,0-1.271-0.569-1.271-1.271l0,0
			c0-0.702,0.569-1.271,1.271-1.271h68.971c0.702,0,1.271,0.569,1.271,1.271l0,0C368.632,713.645,368.063,714.214,367.362,714.214z"
			/>
		<g id="XMLID_9201_">
			<path id="XMLID_9204_" style="fill:#E25959;" d="M397.872,657.421c0,1.554-1.254,2.809-2.809,2.809c-0.518,0-1-0.145-1.418-0.391
				c-0.2-0.109-0.382-0.255-0.546-0.409c-0.163-0.164-0.3-0.345-0.427-0.536c-0.264-0.427-0.409-0.927-0.409-1.473
				c0-1.545,1.254-2.8,2.8-2.8c0.591,0,1.136,0.173,1.582,0.482c0.182,0.127,0.354,0.282,0.509,0.445
				c0.155,0.173,0.282,0.364,0.391,0.564C397.754,656.503,397.872,656.948,397.872,657.421z"/>
			<g id="XMLID_9202_">
				<path id="XMLID_9203_" style="fill:#AF2727;" d="M397.545,656.112l-3.9,3.727c-0.2-0.109-0.382-0.255-0.546-0.409
					c-0.163-0.164-0.3-0.345-0.427-0.536l3.972-3.791c0.182,0.127,0.354,0.282,0.509,0.445
					C397.309,655.721,397.436,655.912,397.545,656.112z"/>
			</g>
		</g>
		<g id="XMLID_9197_">
			<path id="XMLID_9200_" style="fill:#E25959;" d="M397.872,721.809c0,1.554-1.254,2.809-2.809,2.809c-0.518,0-1-0.145-1.418-0.391
				c-0.2-0.109-0.382-0.255-0.546-0.409c-0.163-0.164-0.3-0.345-0.427-0.536c-0.264-0.427-0.409-0.927-0.409-1.473
				c0-1.545,1.254-2.8,2.8-2.8c0.591,0,1.136,0.173,1.582,0.482c0.182,0.127,0.354,0.282,0.509,0.445
				c0.155,0.173,0.282,0.364,0.391,0.564C397.754,720.891,397.872,721.337,397.872,721.809z"/>
			<g id="XMLID_9198_">
				<path id="XMLID_9199_" style="fill:#AF2727;" d="M397.545,720.5l-3.9,3.727c-0.2-0.109-0.382-0.255-0.546-0.409
					c-0.163-0.164-0.3-0.345-0.427-0.536l3.972-3.791c0.182,0.127,0.354,0.282,0.509,0.445
					C397.309,720.109,397.436,720.3,397.545,720.5z"/>
			</g>
		</g>
		
			<rect id="XMLID_9196_" x="289.521" y="608.398" style="fill:#E25959;stroke:#640917;stroke-width:2.3202;stroke-linecap:round;stroke-miterlimit:10;" width="255.558" height="8.712"/>
		<g id="XMLID_9112_">
			<path id="XMLID_9087_" style="fill:#FFEDD9;stroke:#640917;stroke-width:2.3202;stroke-linecap:round;stroke-miterlimit:10;" d="
				M418.853,329.443l8.807-3.224l9.129,23.072l-8.939,3.639c-0.007,0.008-0.014,0.017-0.02,0.025
				c-1.24,1.508-2.889,2.627-4.689,3.381l-22.552,9.447l-24.514-18.677l21.837-10.216"/>
			<path id="XMLID_9086_" style="fill:#FFEDD9;stroke:#640917;stroke-width:2.3202;stroke-linecap:round;stroke-miterlimit:10;" d="
				M418.993,329.685l-4.518-2.45c-3.992-2.269-8.443-3.609-13.024-3.921l-3.344-0.228l-13.814,0.052
				c-2.286,0.009-4.123,1.909-4.032,4.213c0.086,2.194,1.963,3.895,4.159,3.887l2.236-0.009l5.754-0.022
				c1.658-0.006,3.248,0.661,4.405,1.849c0.681,0.691,1.236,2.973,1.096,3.833"/>
			<g id="XMLID_9084_">
				
					<path id="XMLID_9085_" style="fill:#FFEDD9;stroke:#640917;stroke-width:2.3202;stroke-linecap:round;stroke-miterlimit:10;" d="
					M427.566,325.628l86.586-31.979c6.866-2.448,20.544-5.114,22.993,1.752c2.449,6.865,17.382,9.655,10.516,12.104l-112.329,39.6"
					/>
			</g>
			<path id="XMLID_9191_" style="fill:#FFFFFF;stroke:#640917;stroke-width:2.3202;stroke-linecap:round;stroke-miterlimit:10;" d="
				M599.974,296.309l-161.756,57.565c-1.705,0.607-3.574-0.313-4.134-2.034l-8.145-25.035c-0.537-1.65,0.333-3.428,1.965-4.017
				l172.069-62.108"/>
			<path id="XMLID_9083_" style="fill:#FF9F36;stroke:#640917;stroke-width:2.3202;stroke-linecap:round;stroke-miterlimit:10;" d="
				M389.48,583.776"/>
			<path id="XMLID_9082_" style="fill:none;stroke:#2E2F73;stroke-width:2.3202;stroke-linecap:round;stroke-miterlimit:10;" d="
				M661.594,193.489"/>
			<path id="XMLID_9079_" style="fill:#FFFFFF;" d="M684.447,271.887v166.132H572.889V271.532c0-16.104,13.055-29.158,29.158-29.158
				h52.886C671.233,242.374,684.447,255.587,684.447,271.887z"/>
			<path id="XMLID_9078_" style="fill:#FF9F36;" d="M615.594,789.257h-73.2c-4.559,0-8.254-3.696-8.254-8.254v0
				c0-3.718,2.486-6.977,6.071-7.961l37.335-10.238h43.406v21.095C620.952,786.858,618.553,789.257,615.594,789.257z"/>
			<path id="XMLID_9077_" style="fill:none;stroke:#640917;stroke-width:2.3202;stroke-linecap:round;stroke-miterlimit:10;" d="
				M615.594,789.257h-73.2c-4.559,0-8.254-3.696-8.254-8.254v0c0-3.718,2.486-6.977,6.071-7.961l37.335-10.238h43.406v21.095
				C620.952,786.858,618.553,789.257,615.594,789.257z"/>
			<path id="XMLID_9076_" style="fill:#FFFFFF;stroke:#640917;stroke-width:2.3202;stroke-linecap:round;stroke-miterlimit:10;" d="
				M618.031,789.257H537.06c-1.613,0-2.921-1.308-2.921-2.921v-2.899h86.813v2.899C620.952,787.949,619.644,789.257,618.031,789.257
				z"/>
			
				<line id="XMLID_9075_" style="fill:#FFFFFF;stroke:#640917;stroke-width:2.3202;stroke-linecap:round;stroke-miterlimit:10;" x1="564.577" y1="766.611" x2="565.915" y2="771.063"/>
			
				<line id="XMLID_9074_" style="fill:#FFFFFF;stroke:#640917;stroke-width:2.3202;stroke-linecap:round;stroke-miterlimit:10;" x1="568.25" y1="765.687" x2="569.588" y2="770.139"/>
			
				<line id="XMLID_9073_" style="fill:#FFFFFF;stroke:#640917;stroke-width:2.3202;stroke-linecap:round;stroke-miterlimit:10;" x1="571.923" y1="764.763" x2="573.261" y2="769.216"/>
			<path id="XMLID_8506_" style="fill:none;stroke:#640917;stroke-width:2.3202;stroke-linecap:round;stroke-miterlimit:10;" d="
				M572.838,415.375v22.644h111.558V271.716c0-16.205-13.137-29.343-29.343-29.343h-53.057c-16.104,0-29.158,13.055-29.158,29.158
				l-0.714,108.859L572.838,415.375z"/>
			<path id="XMLID_9071_" style="fill:#FFEDD9;stroke:#640917;stroke-width:2.3202;stroke-linecap:round;stroke-miterlimit:10;" d="
				M645.383,218.395v18.275c0,0.559-0.023,1.106-0.07,1.653c-0.838,10.464-9.591,18.694-20.277,18.694h-14.837
				c-5.1,0-9.234-4.134-9.234-9.234v-22.648L645.383,218.395z"/>
			<path id="XMLID_9069_" style="fill:#FCD3B6;" d="M645.383,220.106v16.564c0,0.559-0.023,1.106-0.07,1.653
				c-6.635,3.585-14.236,5.611-22.314,5.611h-7.671c-5.075,0-9.917-0.954-14.364-2.701c-0.058-0.012-0.105-0.035-0.163-0.058
				v-14.224l0.163-0.023L645.383,220.106z"/>
			<path id="XMLID_9068_" style="fill:none;stroke:#640917;stroke-width:2.3202;stroke-linecap:round;stroke-miterlimit:10;" d="
				M645.302,218.395v18.275c0,0.559-0.023,1.106-0.07,1.653c-0.838,10.464-9.591,18.694-20.277,18.694h-17.901
				c-3.408,0-6.171-2.763-6.171-6.171v-25.711L645.302,218.395z"/>
			<polygon id="XMLID_9066_" style="fill:#DBAA94;" points="680.405,457.304 670.645,472.003 633.496,485.69 623.72,480.693 
				623.72,459.837 			"/>
			
				<rect id="XMLID_9064_" x="572.889" y="438.019" transform="matrix(-1 -1.224647e-16 1.224647e-16 -1 1197.3301 1200.8184)" style="fill:#DBAA94;stroke:#640917;stroke-width:2.3202;stroke-miterlimit:10;" width="51.553" height="324.78"/>
			<path id="XMLID_9062_" style="fill:#DBAA94;stroke:#640917;stroke-width:2.3202;stroke-linecap:round;stroke-miterlimit:10;" d="
				M676.568,463.147c4.93-6.131,7.879-13.913,7.879-22.38v-2.748H572.838v38.57"/>
			
				<line id="XMLID_9061_" style="fill:#C68671;stroke:#640917;stroke-width:2.3202;stroke-linecap:round;stroke-miterlimit:10;" x1="624.635" y1="470.576" x2="600.47" y2="470.576"/>
			
				<polygon id="XMLID_9059_" style="fill:#E25959;stroke:#640917;stroke-width:2.3202;stroke-linecap:round;stroke-miterlimit:10;" points="
				591.947,405.451 606.514,416.833 620.365,405.451 612.724,266.487 600.305,266.487 			"/>
			<path id="XMLID_9058_" style="fill:#FF9F36;" d="M666.59,789.257H593.39c-4.559,0-8.254-3.696-8.254-8.254v0
				c0-3.718,2.486-6.977,6.072-7.961l37.335-10.238h43.406v21.095C671.948,786.858,669.549,789.257,666.59,789.257z"/>
			<path id="XMLID_9057_" style="fill:none;stroke:#640917;stroke-width:2.3202;stroke-linecap:round;stroke-miterlimit:10;" d="
				M666.59,789.257H593.39c-4.559,0-8.254-3.696-8.254-8.254v0c0-3.718,2.486-6.977,6.072-7.961l37.335-10.238h43.406v21.095
				C671.948,786.858,669.549,789.257,666.59,789.257z"/>
			<path id="XMLID_9056_" style="fill:#FFFFFF;stroke:#640917;stroke-width:2.3202;stroke-linecap:round;stroke-miterlimit:10;" d="
				M669.027,789.257h-80.971c-1.613,0-2.921-1.308-2.921-2.921v-2.899h86.813v2.899C671.948,787.949,670.64,789.257,669.027,789.257
				z"/>
			
				<line id="XMLID_9055_" style="fill:#FFFFFF;stroke:#640917;stroke-width:2.3202;stroke-linecap:round;stroke-miterlimit:10;" x1="615.573" y1="766.611" x2="616.911" y2="771.063"/>
			
				<line id="XMLID_9054_" style="fill:#FFFFFF;stroke:#640917;stroke-width:2.3202;stroke-linecap:round;stroke-miterlimit:10;" x1="619.246" y1="765.687" x2="620.584" y2="770.139"/>
			
				<line id="XMLID_9053_" style="fill:#FFFFFF;stroke:#640917;stroke-width:2.3202;stroke-linecap:round;stroke-miterlimit:10;" x1="622.919" y1="764.763" x2="624.257" y2="769.216"/>
			
				<polyline id="XMLID_9051_" style="fill:#DBAA94;stroke:#640917;stroke-width:2.3202;stroke-linecap:round;stroke-miterlimit:10;" points="
				676.188,464.29 676.188,762.799 624.635,762.799 624.635,470.576 			"/>
			
				<rect id="XMLID_9050_" x="572.889" y="430.116" transform="matrix(-1 -1.224647e-16 1.224647e-16 -1 1257.3354 868.1353)" style="fill:#AF6C5A;stroke:#640917;stroke-width:2.3202;stroke-linecap:round;stroke-miterlimit:10;" width="111.558" height="7.903"/>
			<path id="XMLID_9049_" style="fill:#CDE0DF;stroke:#640917;stroke-width:2.3202;stroke-miterlimit:10;" d="M607.684,441.197
				h-8.68c-3.938,0-7.13-3.192-7.13-7.13l0,0c0-3.938,3.192-7.129,7.13-7.129h8.68c3.938,0,7.13,3.192,7.13,7.129l0,0
				C614.814,438.005,611.622,441.197,607.684,441.197z"/>
			<path id="XMLID_9044_" style="fill:#FFFFFF;stroke:#640917;stroke-width:2.3202;stroke-linecap:round;stroke-miterlimit:10;" d="
				M648.304,242.374v-7.316c0-1.613-1.307-2.92-2.92-2.92l0,0l-32.873,19.044v25.265c0,0.574,0.693,0.862,1.1,0.457L648.304,242.374
				z"/>
			<path id="XMLID_9043_" style="fill:#E25959;stroke:#640917;stroke-width:2.3202;stroke-linecap:round;stroke-miterlimit:10;" d="
				M602.616,266.487h7.081c1.554,0,2.813-1.259,2.813-2.813v-9.679c0-1.553-1.259-2.813-2.813-2.813h-7.081
				c-1.554,0-2.813,1.26-2.813,2.813v9.679C599.803,265.228,601.063,266.487,602.616,266.487z"/>
			
				<path id="XMLID_9042_" style="fill:#FFFFFF;stroke:#640917;stroke-width:2.3202;stroke-linecap:round;stroke-linejoin:round;stroke-miterlimit:10;" d="
				M600.883,240.892l-2.669,35.008l-4.909-24.718l2.626-12.556c0.106-0.667,0.682-1.158,1.357-1.158h3.677L600.883,240.892z"/>
			<path id="XMLID_9041_" style="fill:#FFFFFF;stroke:#640917;stroke-width:2.3202;stroke-linecap:round;stroke-miterlimit:10;" d="
				M557.293,246.922"/>
			<path id="XMLID_9040_" style="fill:#FFFFFF;stroke:#640917;stroke-width:2.3202;stroke-linecap:round;stroke-miterlimit:10;" d="
				M562.96,231.847"/>
			
				<rect id="XMLID_9039_" x="607.563" y="470.576" transform="matrix(-1 -1.224647e-16 1.224647e-16 -1 1232.1989 1231.4736)" style="opacity:0.27;fill:#64121A;" width="17.072" height="290.323"/>
			<path id="XMLID_9038_" style="fill:#FFEDD9;" d="M656.896,152.468l-0.008,32.87l0,0c0.005,26.056-21.117,47.182-47.173,47.182
				h-7.67c-21.806,0-39.483-17.677-39.483-39.482v-42.371v-5.869c0-13.364,10.833-24.198,24.197-24.199l45.928-0.004
				c13.365-0.001,24.201,10.833,24.201,24.199v11.65"/>
			<rect id="XMLID_9037_" x="562.562" y="157.908" style="fill:#FCD3B6;" width="17.837" height="14.065"/>
			<path id="XMLID_9036_" style="fill:#FCD3B6;" d="M615.417,171.973h-15.255c-2.692,0-4.874-2.182-4.874-4.874v-9.191h24.69v9.504
				C619.978,169.931,617.936,171.973,615.417,171.973z"/>
			<path id="XMLID_9034_" style="fill:#FCD3B6;" d="M656.896,152.474l-0.012,32.871c0,0.012,0,0.012,0,0.023
				c0,26.039-21.127,47.154-47.165,47.154h-7.671c-0.501,0-1.013-0.012-1.513-0.023c25.27-0.885,45.501-21.65,45.501-47.131
				c0-0.012,0-0.012,0-0.023l0.012-32.871l-0.012,3.969v-11.652c0-13.328-10.779-24.153-24.107-24.2h10.755
				c13.363,0,24.2,10.837,24.2,24.2v11.652L656.896,152.474z"/>
			<path id="XMLID_9033_" style="fill:none;stroke:#640917;stroke-width:2.3202;stroke-linecap:round;stroke-miterlimit:10;" d="
				M656.896,152.204l-0.008,32.87l0,0c0.005,26.056-21.117,47.182-47.173,47.182h-7.67c-21.806,0-39.483-17.677-39.483-39.482
				v-42.37v-5.869c0-13.364,10.833-24.197,24.197-24.199l45.928-0.004c13.365-0.001,24.201,10.833,24.201,24.199v11.65"/>
			<path id="XMLID_9032_" style="fill:none;stroke:#640917;stroke-width:2.3202;stroke-linecap:round;stroke-miterlimit:10;" d="
				M587.521,193.448c-3.934,0-7.123-3.189-7.123-7.123v-15.995"/>
			<path id="XMLID_9031_" style="fill:#FFF3E4;stroke:#640917;stroke-width:2.3202;stroke-linecap:round;stroke-miterlimit:10;" d="
				M662.633,178.691"/>
			<path id="XMLID_9028_" style="fill:#640917;stroke:#640917;stroke-width:2.3202;stroke-linecap:round;stroke-miterlimit:10;" d="
				M616.922,158.926h-18.34c-1.688,0-3.055-1.368-3.055-3.055v0c0-1.688,1.368-3.055,3.055-3.055h18.34
				c1.688,0,3.056,1.368,3.056,3.055v0C619.978,157.558,618.61,158.926,616.922,158.926z"/>
			<g id="XMLID_9026_">
				<path id="XMLID_9027_" style="fill:#FF9F36;" d="M662.633,138.202c0-22.861-18.533-41.405-41.394-41.405h-0.159h-74.146v23.998
					c0,13.254,10.744,23.998,23.998,23.998h51.443c7.43,0,15.428,2.697,15.428,12.444v16.588c1.203,5.555,12.311,6.513,14.87,1.439
					l9.961-8.36v-28.553C662.633,138.305,662.633,138.255,662.633,138.202z"/>
			</g>
			<g id="XMLID_9024_">
				<path id="XMLID_9025_" style="fill:#F48D25;" d="M649.05,166.66l-0.197,3.671l-2.766,7.535c1.212,5.553,4.019,2.233,6.573-2.85
					l9.972-8.355v-28.703c0-22.863-18.536-41.399-41.399-41.399h-13.569c22.85,0,41.386,18.536,41.386,41.399V166.66z"/>
			</g>
			<g id="XMLID_9022_">
				<path id="XMLID_9023_" style="fill:none;stroke:#640917;stroke-width:2.3202;stroke-linecap:round;stroke-miterlimit:10;" d="
					M662.633,137.961c0-22.861-18.533-41.405-41.394-41.405h-0.159h-74.146v23.998c0,13.254,10.744,23.998,23.998,23.998h51.443
					c7.43,0,15.428,3.643,15.428,12.444v16.588c0,5.969,14.87,9.845,14.87,1.439l9.961-2.869V138.11
					C662.633,138.063,662.633,138.014,662.633,137.961z"/>
			</g>
			<path id="XMLID_9021_" style="fill:#640917;stroke:#640917;stroke-width:2.3202;stroke-linecap:round;stroke-miterlimit:10;" d="
				M576.286,158.926H564.56c-1.688,0-3.055-1.368-3.055-3.055v0c0-1.688,1.368-3.055,3.055-3.055h11.726
				c1.688,0,3.055,1.368,3.055,3.055v0C579.341,157.558,577.973,158.926,576.286,158.926z"/>
			<path id="XMLID_9018_" style="fill:none;stroke:#640917;stroke-width:2.3202;stroke-linecap:round;stroke-miterlimit:10;" d="
				M602.946,204.233L602.946,204.233c-2.897,1.96-6.314,3.007-9.811,3.007h-16.594"/>
			
				<circle id="XMLID_9017_" style="fill:#FFFFFF;stroke:#640917;stroke-width:2.3202;stroke-linecap:round;stroke-miterlimit:10;" cx="603.916" cy="171.973" r="5.893"/>
			
				<circle id="XMLID_9016_" style="fill:#FFFFFF;stroke:#640917;stroke-width:2.3202;stroke-linecap:round;stroke-miterlimit:10;" cx="569.889" cy="171.973" r="5.893"/>
			<path id="XMLID_9015_" style="fill:#640917;stroke:#640917;stroke-width:2.3202;stroke-linecap:round;stroke-miterlimit:10;" d="
				M598.578,173.8c0,1.332,1.08,2.411,2.411,2.411c1.332,0,2.411-1.079,2.411-2.411c0-1.332-1.08-2.411-2.411-2.411
				C599.657,171.389,598.578,172.469,598.578,173.8z"/>
			
				<circle id="XMLID_9012_" style="fill:#640917;stroke:#640917;stroke-width:2.3202;stroke-linecap:round;stroke-miterlimit:10;" cx="567.477" cy="174.146" r="2.411"/>
			<path id="XMLID_9011_" style="fill:#FF9F36;stroke:#640917;stroke-width:2.3202;stroke-linecap:round;stroke-miterlimit:10;" d="
				M565.674,113.113H542.69v5.152c0,14.567,11.809,26.376,26.376,26.376l0,0"/>
			<circle id="XMLID_9118_" style="opacity:0.52;fill:#FFFFFF;" cx="565.95" cy="176.294" r="12.13"/>
			
				<circle id="XMLID_9117_" style="fill:none;stroke:#E25959;stroke-width:2.3202;stroke-linecap:round;stroke-miterlimit:10;" cx="565.37" cy="176.294" r="12.13"/>
			<circle id="XMLID_9116_" style="opacity:0.52;fill:#FFFFFF;" cx="603.69" cy="176.294" r="12.13"/>
			
				<circle id="XMLID_9115_" style="fill:none;stroke:#E25959;stroke-width:2.3202;stroke-linecap:round;stroke-miterlimit:10;" cx="603.11" cy="176.294" r="12.13"/>
			
				<line id="XMLID_9114_" style="fill:none;stroke:#E25959;stroke-width:2.3202;stroke-linecap:round;stroke-miterlimit:10;" x1="576.529" y1="170.331" x2="592.554" y2="170.331"/>
			
				<line id="XMLID_9113_" style="fill:none;stroke:#E25959;stroke-width:2.3202;stroke-linecap:round;stroke-miterlimit:10;" x1="613.666" y1="170.331" x2="648.143" y2="170.041"/>
		</g>
		<g id="XMLID_9009_">
			<path id="XMLID_9010_" style="fill:#FFFFFF;stroke:#640917;stroke-width:2.3202;stroke-linecap:round;stroke-miterlimit:10;" d="
				M670.417,246.922c1.869,1.498,53.743,39.366,54.293,94.776c0.394,39.755-21.327,78.198-64.561,114.263
				c-2.895,2.416-6.414,3.595-9.912,3.595c-4.436,0-8.838-1.895-11.901-5.567c-5.479-6.568-4.597-16.335,1.972-21.814
				c35.643-29.734,53.62-59.982,53.431-89.905c-0.112-17.666-6.637-32.992-14.005-44.695"/>
		</g>
		<path id="XMLID_9111_" style="fill:none;stroke:#FFFFFF;stroke-width:4.6405;stroke-miterlimit:10;" d="M365.442,339.081
			l15.829,9.388l0,0c17.926,10.732,28.899,30.09,28.899,50.983v90.561"/>
		<g id="XMLID_9007_">
			<path id="XMLID_9008_" style="fill:#FFEDD9;stroke:#640917;stroke-width:2.3202;stroke-linecap:round;stroke-miterlimit:10;" d="
				M655.924,431.983c-0.348,0.305-0.744,0.565-1.184,0.769l-15.085,6.994c-2.484,1.151-5.43,0.071-6.58-2.411
				c-1.151-2.484-0.074-5.429,2.411-6.58l15.085-6.994c2.484-1.151,5.43-0.071,6.58,2.411
				C658.098,428.215,657.535,430.571,655.924,431.983z"/>
		</g>
		<g id="XMLID_9004_">
			<path id="XMLID_9006_" style="fill:#FFEDD9;stroke:#640917;stroke-width:2.3202;stroke-linecap:round;stroke-miterlimit:10;" d="
				M650.124,423.968c6.327-4.778,15.926-4.913,21.472,1.144c5.547,6.056,5.132,15.461-0.923,21.006
				c-1.302,1.193-5.178,4.649-7.239,6.485l-1.123,1.002c-0.085,0.078-0.173,0.157-0.261,0.233c-1.446,1.263-5.172,4.3-6.88,4.911
				c-5.568,1.993-9.928-1.557-14.071-6.253c-0.387-0.437-8.327-5.587,2.144-16.086"/>
		</g>
		<g id="XMLID_8994_">
			<path id="XMLID_8995_" style="fill:#FFEDD9;stroke:#640917;stroke-width:2.3202;stroke-linecap:round;stroke-miterlimit:10;" d="
				M659.608,455.847l-16.336,11.263c-0.57,0.341-1.181,0.555-1.8,0.649c-1.931,0.293-3.934-0.576-4.998-2.354
				c-1.407-2.348-0.642-5.391,1.705-6.798l13.655-8.612"/>
		</g>
		<g id="XMLID_8987_">
			<path id="XMLID_8989_" style="fill:#FFEDD9;stroke:#640917;stroke-width:2.3202;stroke-linecap:round;stroke-miterlimit:10;" d="
				M645.133,444.077l-14.807,7.859c-0.59,0.305-1.213,0.48-1.836,0.536c-1.944,0.172-3.891-0.82-4.842-2.661
				c-1.258-2.431-0.306-5.421,2.125-6.679l20.438-10.573"/>
		</g>
		<g id="XMLID_8984_">
			<path id="XMLID_8985_" style="fill:#FFEDD9;stroke:#640917;stroke-width:2.3202;stroke-linecap:round;stroke-miterlimit:10;" d="
				M651.834,449.995l-16.134,9.784c-0.568,0.344-1.178,0.562-1.796,0.66c-1.929,0.305-3.938-0.552-5.013-2.324
				c-1.421-2.339-0.675-5.387,1.664-6.808l15.196-8.37"/>
		</g>
		<rect id="XMLID_9095_" x="635.769" y="296.937" style="opacity:0.07;fill:#640917;" width="21.126" height="26.148"/>
		<polygon id="XMLID_9072_" style="opacity:0.52;fill:#640917;" points="545.783,631.611 493.903,652.401 290.225,652.401 
			290.225,618.281 545.783,618.281 		"/>
	</g>
	<path style="fill:none;stroke:#640917;stroke-width:2.3202;stroke-miterlimit:10;" d="M311.272,529.966h4.302h6.919h1.588
		c1.496,0,2.814-0.755,3.598-1.903h3.298c1.25,0,2.267,1.017,2.267,2.267v27.811c0,3.178-2.586,5.764-5.764,5.764h-38.224v4.905
		h38.224c5.883,0,10.669-4.786,10.669-10.669V530.33c0-3.955-3.218-7.173-7.172-7.173h-3.298c-0.785-1.148-2.103-1.904-3.598-1.904
		h-1.588h-6.919h-4.302"/>
	
		<line style="fill:none;stroke:#640917;stroke-width:2.3202;stroke-miterlimit:10;" x1="311.272" y1="518.07" x2="311.272" y2="532.868"/>
	<path style="fill:#FFFFFF;" d="M327.529,415.982h-8.484v4.905h8.484c1.25,0,2.267,1.017,2.267,2.267v19.337
		c-0.713-0.239-1.474-0.373-2.267-0.373h-8.484v4.905h8.484c1.25,0,2.267,1.017,2.267,2.267v18.104c0,5.128-4.171,9.3-9.3,9.3
		h-30.183v4.905h30.183h1.089c7.232,0,13.116-5.884,13.116-13.116v-1.089V449.29v-26.136
		C334.701,419.199,331.483,415.982,327.529,415.982z"/>
	<g>
		<path style="fill:none;stroke:#640917;stroke-width:2.3202;stroke-miterlimit:10;" d="M289.543,481.59h34.078
			c5.883,0,10.669-4.786,10.669-10.669v-47.896c0-3.955-3.218-7.173-7.172-7.173h-3.298c-0.785-1.148-2.103-1.904-3.598-1.904
			h-1.588h-6.919h-3.245v8.712h3.245h6.919h1.588c1.496,0,2.814-0.755,3.598-1.904h3.298c1.25,0,2.267,1.017,2.267,2.267v47.896
			c0,3.178-2.586,5.764-5.764,5.764h-34.078"/>
		<path style="fill:none;stroke:#640917;stroke-width:2.3202;stroke-miterlimit:10;" d="M309.099,486.875h47.24
			c5.883,0,10.669-4.786,10.669-10.669v-53.182c0-3.955-3.218-7.173-7.172-7.173h-3.298c-0.785-1.148-2.103-1.904-3.598-1.904
			h-1.588h-6.919h-3.245v8.712h3.245h6.919h1.588c1.496,0,2.814-0.755,3.598-1.904h3.298c1.25,0,2.267,1.017,2.267,2.267v53.182
			c0,3.178-2.586,5.764-5.764,5.764h-46.888"/>
		<path style="fill:none;stroke:#640917;stroke-width:2.3202;stroke-miterlimit:10;" d="M364.856,481.97h23.37
			c3.178,0,5.764-2.585,5.764-5.764v-53.182c0-1.25-1.017-2.267-2.267-2.267h-3.298c-0.784,1.148-2.103,1.904-3.598,1.904h-1.588
			h-6.919h-3.245v-8.712h3.245h6.919h1.588c1.496,0,2.814,0.755,3.598,1.904h3.298c3.955,0,7.172,3.217,7.172,7.173v53.182
			c0,5.883-4.787,10.669-10.669,10.669h-30.24"/>
		<g>
			<path style="fill:none;stroke:#640917;stroke-width:2.3202;stroke-miterlimit:10;" d="M290.072,492.16h133.653
				c5.883,0,10.669-4.786,10.669-10.669v-58.467c0-3.955-3.217-7.173-7.172-7.173h-3.298c-0.785-1.148-2.103-1.904-3.599-1.904
				h-1.588h-6.116"/>
			<path style="fill:none;stroke:#640917;stroke-width:2.3202;stroke-miterlimit:10;" d="M412.688,422.661h6.05h1.588
				c1.496,0,2.814-0.755,3.599-1.904h3.298c1.25,0,2.267,1.017,2.267,2.267v58.467c0,3.178-2.586,5.764-5.764,5.764H290.072"/>
		</g>
		<path style="fill:none;stroke:#640917;stroke-width:2.3202;stroke-miterlimit:10;" d="M420.082,492.16h38.224
			c5.883,0,10.669-4.786,10.669-10.669v-58.467c0-3.955-3.217-7.173-7.172-7.173h-3.298c-0.784-1.148-2.103-1.904-3.598-1.904
			h-1.588H446.4h-3.245v8.712h3.245h6.919h1.588c1.496,0,2.814-0.755,3.598-1.904h3.298c1.25,0,2.267,1.017,2.267,2.267v58.467
			c0,3.178-2.586,5.764-5.764,5.764h-25.002"/>
		<path style="fill:none;stroke:#640917;stroke-width:2.3202;stroke-miterlimit:10;" d="M456.814,492.16h38.224
			c5.883,0,10.669-4.786,10.669-10.669v-58.467c0-3.955-3.217-7.173-7.172-7.173h-3.298c-0.785-1.148-2.103-1.904-3.599-1.904
			h-1.588h-6.919h-3.245v8.712h3.245h6.919h1.588c1.496,0,2.814-0.755,3.599-1.904h3.298c1.25,0,2.267,1.017,2.267,2.267v58.467
			c0,3.178-2.586,5.764-5.764,5.764h-27.385"/>
		<path style="fill:none;stroke:#640917;stroke-width:2.3202;stroke-miterlimit:10;" d="M497.25,492.16h28.971
			c5.883,0,10.669-4.786,10.669-10.669v-58.467c0-3.955-3.218-7.173-7.172-7.173h-3.298c-0.784-1.148-2.103-1.904-3.598-1.904
			h-1.588h-6.919h-3.245v8.712h3.245h6.919h1.588c1.496,0,2.814-0.755,3.598-1.904h3.298c1.25,0,2.267,1.017,2.267,2.267v58.467
			c0,3.178-2.586,5.764-5.764,5.764h-22.628"/>
	</g>
	
		<rect id="XMLID_9277_" x="298.694" y="476.515" style="fill:#FFD671;stroke:#640917;stroke-width:2.3202;stroke-miterlimit:10;" width="10.186" height="16.714"/>
	<g>
		<path style="fill:none;stroke:#640917;stroke-width:2.3202;stroke-miterlimit:10;" d="M328.782,442.279h-4.961
			c-0.785-1.148-2.103-1.904-3.598-1.904h-1.588h-6.919h-3.245v8.712h3.245h6.919h1.588c1.496,0,2.814-0.755,3.598-1.904h4.961"/>
	</g>
	<g>
		<path style="fill:none;stroke:#640917;stroke-width:2.3202;stroke-miterlimit:10;" d="M361.448,442.279h-5.412
			c-0.785-1.148-2.103-1.904-3.599-1.904h-1.588h-6.919h-3.245v8.712h3.245h6.919h1.588c1.496,0,2.814-0.755,3.599-1.904h5.412"/>
	</g>
	<g>
		<path style="fill:none;stroke:#640917;stroke-width:2.3202;stroke-miterlimit:10;" d="M393.045,443.336h-5.021
			c-0.785-1.148-2.103-1.904-3.599-1.904h-1.588h-6.919h-3.245v8.712h3.245h6.919h1.588c1.496,0,2.814-0.755,3.599-1.904h5.021"/>
	</g>
	<g>
		<path style="fill:none;stroke:#640917;stroke-width:2.3202;stroke-miterlimit:10;" d="M428.847,442.279h-5.412
			c-0.785-1.148-2.103-1.904-3.598-1.904h-1.588h-5.627"/>
		<path style="fill:none;stroke:#640917;stroke-width:2.3202;stroke-miterlimit:10;" d="M412.688,449.088h5.561h1.588
			c1.496,0,2.814-0.755,3.598-1.904h6.165"/>
	</g>
	<g>
		<path style="fill:none;stroke:#640917;stroke-width:2.3202;stroke-miterlimit:10;" d="M463.294,443.341
			c-0.088-0.003-1.766-0.005-1.855-0.005h-3.298c-0.785-1.148-2.103-1.904-3.599-1.904h-1.588h-6.919h-3.245v8.712h3.245h6.919
			h1.588c1.496,0,2.814-0.755,3.599-1.904h5.285"/>
	</g>
	<g>
		<path style="fill:none;stroke:#640917;stroke-width:2.3202;stroke-miterlimit:10;" d="M500.422,442.279h-5.638
			c-0.784-1.148-2.103-1.904-3.599-1.904h-1.588h-6.919h-3.246v8.712h3.246h6.919h1.588c1.496,0,2.814-0.755,3.599-1.904h5.638"/>
	</g>
	<g>
		<path style="fill:none;stroke:#640917;stroke-width:2.3202;stroke-miterlimit:10;" d="M531.208,443.336h-5.593
			c-0.785-1.148-2.103-1.904-3.599-1.904h-1.588h-6.919h-2.188v8.712h2.188h6.919h1.588c1.496,0,2.814-0.755,3.599-1.904h5.593"/>
	</g>
	<g id="XMLID_6007_">
		<g>
			<path style="fill:none;stroke:#640917;stroke-width:2.3202;stroke-miterlimit:10;" d="M407.717,487.504v-88.052
				c0-19.918-10.617-38.647-27.706-48.879l2.519-4.209c18.562,11.112,30.092,31.454,30.092,53.087v88.052"/>
		</g>
	</g>
	<g id="XMLID_6002_">
		
			<rect x="370.903" y="334.573" transform="matrix(0.5101 -0.8601 0.8601 0.5101 -112.7858 489.521)" style="fill:none;stroke:#640917;stroke-width:2.3202;stroke-miterlimit:10;" width="4.905" height="18.404"/>
	</g>
	<path id="XMLID_9429_" style="fill:#FFFFFF;stroke:#640917;stroke-width:2.3202;stroke-linecap:round;stroke-miterlimit:10;" d="
		M363.32,342.504l-7.261-4.432l4.539-7.436l7.261,4.432c2.053,1.253,2.702,3.934,1.449,5.988l0,0
		C368.055,343.109,365.374,343.757,363.32,342.504z"/>
	<path id="XMLID_8983_" style="fill:#FFEDD9;stroke:#640917;stroke-width:2.3202;stroke-linecap:round;stroke-miterlimit:10;" d="
		M381.877,359.094l-0.056-0.108c-1.239-2.381-0.314-5.316,2.068-6.556l6.568-3.418c2.381-1.239,5.316-0.314,6.556,2.068l0.056,0.108
		c1.239,2.381,0.314,5.316-2.068,6.556l-6.568,3.418C386.051,362.401,383.116,361.475,381.877,359.094z"/>
	<path id="XMLID_8982_" style="fill:#FFEDD9;stroke:#640917;stroke-width:2.3202;stroke-linecap:round;stroke-miterlimit:10;" d="
		M386.62,345.578L386.62,345.578c1.255,2.411,0.318,5.383-2.093,6.638l-6.469,3.367c-2.411,1.255-5.383,0.318-6.638-2.093l0,0
		c-1.255-2.411-0.318-5.383,2.093-6.638l6.469-3.367C382.393,342.23,385.365,343.167,386.62,345.578"/>
	<path id="XMLID_8947_" style="fill:#FFEDD9;stroke:#640917;stroke-width:2.3202;stroke-linecap:round;stroke-miterlimit:10;" d="
		M392.997,364.33l-0.056-0.108c-1.239-2.381-0.314-5.316,2.068-6.556l3.359-1.748c2.381-1.239,5.316-0.314,6.556,2.068l0.056,0.108
		c1.239,2.381,0.314,5.316-2.068,6.556l-3.359,1.748C397.172,367.637,394.237,366.711,392.997,364.33z"/>
	<path id="XMLID_9020_" style="fill:#FCD3B6;stroke:#640917;stroke-width:2.3202;stroke-linecap:round;stroke-miterlimit:10;" d="
		M646.05,179.748c0-6.51,5.277-11.787,11.787-11.787s11.787,5.277,11.787,11.787c0,6.51-5.277,11.787-11.787,11.787
		c-2.123,0-4.115-0.561-5.836-1.544"/>
	<path id="XMLID_9019_" style="fill:#FFF3E4;stroke:#640917;stroke-width:2.3202;stroke-linecap:round;stroke-miterlimit:10;" d="
		M657.837,174.953c2.648,0,4.795,2.147,4.795,4.795"/>
</g>
</svg>
